<svg width="217" height="109" viewBox="0 0 217 109" fill="none" xmlns="http://www.w3.org/2000/svg">
<path d="M114.886 42.716L110.237 48.9276C109.236 50.2673 107.233 50.2673 106.232 48.9276L101.583 42.716C100.352 41.065 101.529 38.7239 103.586 38.7239H112.883C114.947 38.7239 116.124 41.065 114.886 42.716Z" fill="black"/>
<path d="M115.644 57.7373C110.698 57.7373 106.672 53.7114 106.672 48.7651C106.672 47.899 107.375 47.1953 108.241 47.1953C109.108 47.1953 109.811 47.899 109.811 48.7651C109.811 51.9859 112.43 54.6045 115.651 54.6045C118.871 54.6045 121.49 51.9859 121.49 48.7651C121.49 47.899 122.194 47.1953 123.06 47.1953C123.926 47.1953 124.63 47.899 124.63 48.7651C124.623 53.7114 120.597 57.7373 115.644 57.7373Z" fill="black"/>
<path d="M100.832 57.7373C95.8861 57.7373 91.8601 53.7114 91.8601 48.7651C91.8601 47.899 92.5638 47.1953 93.4299 47.1953C94.296 47.1953 94.9997 47.899 94.9997 48.7651C94.9997 51.9859 97.6183 54.6045 100.839 54.6045C104.06 54.6045 106.678 51.9859 106.678 48.7651C106.678 47.899 107.382 47.1953 108.248 47.1953C109.114 47.1953 109.818 47.899 109.818 48.7651C109.811 53.7114 105.785 57.7373 100.832 57.7373Z" fill="black"/>
<path d="M117.775 32.8777C120.264 32.8777 122.282 30.8601 122.282 28.3713C122.282 25.8825 120.264 23.8649 117.775 23.8649C115.286 23.8649 113.269 25.8825 113.269 28.3713C113.269 30.8601 115.286 32.8777 117.775 32.8777Z" fill="black"/>
<path d="M98.7076 32.8777C101.196 32.8777 103.214 30.8601 103.214 28.3713C103.214 25.8825 101.196 23.8649 98.7076 23.8649C96.2188 23.8649 94.2012 25.8825 94.2012 28.3713C94.2012 30.8601 96.2188 32.8777 98.7076 32.8777Z" fill="black"/>
<path d="M96.2785 14.9198C96.2785 15.4611 96.0078 15.9889 95.5071 16.2866C91.5353 18.6481 89.5257 23.1207 89.5257 29.6164C89.5257 42.3777 84.1396 46.1669 79.6197 47.0939C78.8889 47.2428 78.1582 47.3104 77.4342 47.3104C73.2255 47.3104 69.3754 44.8475 67.8124 40.9094C65.3697 34.7926 68.0154 25.11 93.9915 13.4448C94.8102 13.0726 95.7778 13.438 96.1432 14.2635C96.2379 14.48 96.2785 14.6965 96.2785 14.9198Z" fill="black"/>
<path d="M148.671 40.9094C147.101 44.8407 143.251 47.3104 139.049 47.3104C138.325 47.3104 137.594 47.236 136.863 47.0939C132.343 46.1669 126.957 42.3777 126.957 29.6164C126.957 23.1206 124.948 18.6481 120.976 16.2866C120.482 15.9957 120.204 15.4679 120.204 14.9198C120.204 14.6965 120.245 14.4732 120.34 14.2635C120.705 13.438 121.673 13.0726 122.491 13.4447C148.468 25.11 151.106 34.7926 148.671 40.9094Z" fill="black"/>
<path d="M22.8432 75.6006C22.6605 75.1879 22.3966 74.8428 22.0583 74.5789C21.6929 74.2879 21.2463 74.1391 20.732 74.1391H20.4546C19.9404 74.1391 19.4938 74.2879 19.1284 74.5789C18.7901 74.8428 18.5262 75.1879 18.3435 75.6141L11.2862 92.2662C11.1644 92.5571 11.1035 92.8075 11.1035 93.0308C11.1035 93.5247 11.2727 93.951 11.6042 94.2961C11.9358 94.6412 12.3824 94.8239 12.9034 94.8239C13.2687 94.8239 13.6071 94.7224 13.9116 94.5261C14.2093 94.3299 14.4393 94.0593 14.6017 93.7074L16.2595 89.7356H24.9272L26.5917 93.7277C26.7473 94.0593 26.9774 94.3299 27.2751 94.5261C27.5796 94.7224 27.9179 94.8239 28.2833 94.8239C28.7976 94.8239 29.2441 94.6412 29.5825 94.2961C29.914 93.951 30.0832 93.5247 30.0832 93.0308C30.0832 92.8075 30.0223 92.5571 29.9005 92.2594L22.8432 75.6006ZM23.5063 86.3388H17.6939L20.6035 79.3424L23.5063 86.3388Z" fill="black"/>
<path d="M34.2648 73.6722H34.0957C33.5611 73.6722 33.0942 73.8684 32.7085 74.2474C32.3229 74.633 32.1334 75.0932 32.1334 75.6345V75.7427C32.1334 76.2773 32.3296 76.7441 32.7085 77.1298C33.0942 77.5155 33.5543 77.705 34.0957 77.705H34.2648C34.7994 77.705 35.2662 77.5087 35.6519 77.1298C36.0376 76.7441 36.2271 76.284 36.2271 75.7427V75.6345C36.2271 75.0999 36.0308 74.633 35.6519 74.2474C35.2662 73.8617 34.7994 73.6722 34.2648 73.6722Z" fill="black"/>
<path d="M34.1498 79.3424C33.6491 79.3424 33.2093 79.5319 32.8642 79.8837C32.5259 80.2356 32.35 80.6686 32.35 81.1626V93.0308C32.35 93.5247 32.5326 93.9645 32.871 94.3096C33.2093 94.6479 33.6559 94.8306 34.143 94.8306C34.637 94.8306 35.07 94.6547 35.4219 94.3164C35.7737 93.9781 35.9632 93.5315 35.9632 93.0308V81.1626C35.9632 80.6483 35.7805 80.2017 35.4422 79.8567C35.1039 79.5116 34.6708 79.3424 34.1498 79.3424Z" fill="black"/>
<path d="M46.7894 79.2003H46.654C45.2737 79.2003 44.0016 79.7687 42.8446 80.8987C42.7904 80.513 42.6145 80.1611 42.3303 79.877C41.9785 79.5251 41.5319 79.3424 41.0379 79.3424C40.5372 79.3424 40.0974 79.5319 39.7523 79.8837C39.414 80.2356 39.2381 80.6686 39.2381 81.1626V93.0308C39.2381 93.5247 39.4208 93.9645 39.7591 94.3096C40.0974 94.6479 40.544 94.8306 41.0312 94.8306C41.5251 94.8306 41.9582 94.6547 42.31 94.3164C42.6619 93.9781 42.8513 93.5315 42.8513 93.0308V84.7893C43.2844 84.1736 43.8189 83.6729 44.4347 83.3143C45.0842 82.9354 45.8082 82.7391 46.5864 82.7391H46.7217C47.2292 82.7391 47.6622 82.5767 48.0073 82.2587C48.3592 81.9339 48.5419 81.5009 48.5419 80.9934C48.5419 80.4995 48.3727 80.0732 48.0411 79.7281C47.7231 79.383 47.2901 79.2003 46.7894 79.2003Z" fill="black"/>
<path d="M70.5799 84.0044C71.0198 83.6797 71.4054 83.2872 71.7302 82.8271C72.3054 82.0287 72.5963 81.0205 72.5963 79.8364C72.5963 78.1448 71.9873 76.7712 70.7829 75.763C69.6056 74.7751 67.9478 74.2812 65.8503 74.2812H59.3207C58.82 74.2812 58.3802 74.4706 58.0351 74.8225C57.6968 75.1743 57.5209 75.6074 57.5209 76.1013V92.8887C57.5209 93.3826 57.7035 93.8224 58.0419 94.1608C58.3802 94.4991 58.8268 94.6818 59.3139 94.6818H66.0059C68.5771 94.6818 70.5123 94.154 71.7505 93.112C73.0226 92.0497 73.6654 90.5678 73.6654 88.7071C73.6654 87.3876 73.2594 86.2779 72.4542 85.4051C71.94 84.8367 71.3039 84.3631 70.5799 84.0044ZM70.1334 88.6056C70.1334 89.4446 69.8424 90.0671 69.2334 90.5137C68.5906 90.9941 67.42 91.2377 65.7555 91.2377H61.1341V86.0005H65.7826C70.1334 86.0005 70.1334 87.9628 70.1334 88.6056ZM61.1409 82.6309V77.732H65.654C66.7637 77.732 67.6366 77.9553 68.2455 78.4019C68.8071 78.8146 69.0846 79.3424 69.0846 80.0326C69.0846 80.8649 68.8207 81.4874 68.2861 81.9339C67.7245 82.4008 66.6825 82.6376 65.1804 82.6376H61.1409V82.6309Z" fill="black"/>
<path d="M85.7771 80.0529C84.8162 79.4913 83.6389 79.2003 82.2721 79.2003C80.5805 79.2003 78.9024 79.5522 77.2717 80.2423C76.5883 80.5333 76.2162 81.0814 76.2162 81.7986C76.2162 82.2384 76.3786 82.6309 76.6831 82.9354C76.9876 83.2398 77.3732 83.4022 77.7927 83.4022C77.9348 83.4022 78.0972 83.3752 78.2867 83.3278L78.3273 83.3143C78.9701 83.0978 79.5588 82.9421 80.073 82.8339C80.5805 82.7324 81.1692 82.6782 81.8323 82.6782C82.9555 82.6782 83.781 82.9015 84.2749 83.3413C84.6944 83.7203 84.9313 84.3495 84.9786 85.2292H82.1909C79.9918 85.2292 78.2867 85.6757 77.1161 86.5554C75.8982 87.4756 75.2757 88.7206 75.2757 90.2633C75.2757 91.1971 75.5125 92.0361 75.9726 92.7601C76.4327 93.4841 77.062 94.039 77.8469 94.4111C78.6115 94.7765 79.4505 94.966 80.3369 94.966C82.1503 94.966 83.7269 94.4652 85.0395 93.4841C85.114 93.7954 85.2764 94.0728 85.5064 94.3028C85.8447 94.6412 86.2913 94.8239 86.7785 94.8239C87.2724 94.8239 87.7055 94.6479 88.0573 94.3096C88.4092 93.9713 88.5986 93.5247 88.5986 93.024V85.1953C88.5986 84.1533 88.3686 83.1722 87.9152 82.279C87.4687 81.3723 86.7447 80.6213 85.7771 80.0529ZM83.375 91.1159C82.7051 91.4677 81.9947 91.6504 81.2774 91.6504C80.3843 91.6504 79.7347 91.488 79.3896 91.1836C79.0581 90.8858 78.8957 90.4934 78.8957 89.9927C78.8957 88.9101 80.1136 88.362 82.5224 88.362H84.9854V89.9182C84.5456 90.3851 84.0043 90.7911 83.375 91.1159Z" fill="black"/>
<path d="M99.2896 79.2003H99.1543C97.7739 79.2003 96.5019 79.7687 95.3448 80.8987C95.2907 80.513 95.1148 80.1611 94.8306 79.877C94.4787 79.5251 94.0321 79.3424 93.5382 79.3424C93.0375 79.3424 92.5977 79.5319 92.2526 79.8837C91.9143 80.2356 91.7383 80.6686 91.7383 81.1626V93.0308C91.7383 93.5247 91.921 93.9645 92.2593 94.3096C92.5977 94.6479 93.0443 94.8306 93.5314 94.8306C94.0254 94.8306 94.4584 94.6547 94.8103 94.3164C95.1621 93.9781 95.3516 93.5315 95.3516 93.0308V84.7893C95.7846 84.1736 96.3192 83.6729 96.9349 83.3143C97.5845 82.9354 98.3085 82.7391 99.0866 82.7391H99.2219C99.7294 82.7391 100.162 82.5767 100.508 82.2587C100.859 81.9339 101.042 81.5009 101.042 80.9934C101.042 80.4995 100.873 80.0732 100.541 79.7281C100.223 79.383 99.7835 79.2003 99.2896 79.2003Z" fill="black"/>
<path d="M110.319 85.7434L113.925 82.5158L113.945 82.4955C114.365 82.076 114.575 81.6294 114.575 81.1626C114.575 80.7024 114.433 80.2965 114.162 79.9581C113.858 79.586 113.404 79.3965 112.809 79.3965C112.396 79.3965 111.997 79.5657 111.604 79.904L105.948 85.1344V75.0864C105.948 74.5924 105.765 74.1458 105.413 73.794C105.061 73.4421 104.615 73.2594 104.121 73.2594C103.62 73.2594 103.18 73.4489 102.835 73.8008C102.497 74.1526 102.321 74.5857 102.321 75.0796V93.0308C102.321 93.5247 102.504 93.9645 102.842 94.3028C103.18 94.6412 103.627 94.8239 104.114 94.8239C104.608 94.8239 105.041 94.6479 105.393 94.3096C105.745 93.9713 105.934 93.5247 105.934 93.024V89.7017L107.707 88.0913L112.112 94.0796C112.294 94.3096 112.511 94.4923 112.768 94.6209C113.032 94.7494 113.296 94.8171 113.567 94.8171C114.074 94.8171 114.507 94.6547 114.852 94.3367C115.204 94.0119 115.387 93.5653 115.387 93.0443C115.387 92.6654 115.258 92.3 115.001 91.9684L110.319 85.7434Z" fill="black"/>
<path d="M119.507 73.0362H119.23C118.655 73.0362 118.154 73.2459 117.748 73.6519C117.335 74.0647 117.132 74.5586 117.132 75.1337V75.3029C117.132 75.878 117.342 76.3788 117.748 76.7847C118.039 77.0757 118.384 77.2719 118.763 77.3531C118.723 77.6914 118.641 77.9688 118.52 78.1515C118.33 78.4493 118.032 78.7131 117.647 78.95C117.207 79.2139 116.963 79.6266 116.963 80.1138C116.963 80.4724 117.099 80.8039 117.349 81.0746C117.606 81.352 117.944 81.4941 118.317 81.4941C118.587 81.4941 118.844 81.4197 119.074 81.2776C120.752 80.2559 121.605 78.7334 121.605 76.7712V75.1405C121.605 74.5654 121.395 74.0647 120.989 73.6587C120.577 73.2392 120.076 73.0362 119.507 73.0362Z" fill="black"/>
<path d="M135.138 80.0055C134.306 79.471 133.318 79.2003 132.201 79.2003C131.004 79.2003 129.941 79.4574 129.055 79.9649C128.554 80.2491 128.067 80.5942 127.607 80.9934C127.566 80.5671 127.39 80.1814 127.079 79.877C126.727 79.5251 126.281 79.3424 125.787 79.3424C125.286 79.3424 124.846 79.5319 124.501 79.8837C124.163 80.2356 123.987 80.6686 123.987 81.1626V93.0308C123.987 93.5247 124.17 93.9645 124.508 94.3096C124.846 94.6479 125.293 94.8306 125.78 94.8306C126.274 94.8306 126.707 94.6547 127.059 94.3164C127.411 93.9781 127.6 93.5315 127.6 93.0308V84.9314C128.168 84.2413 128.777 83.6797 129.413 83.2601C130.056 82.8406 130.767 82.6309 131.585 82.6309C133.311 82.6309 134.075 83.5037 134.075 85.4524V93.0308C134.075 93.5247 134.258 93.9645 134.596 94.3028C134.935 94.6412 135.381 94.8239 135.869 94.8239C136.363 94.8239 136.796 94.6479 137.147 94.3096C137.499 93.9713 137.689 93.5247 137.689 93.024V85.1683C137.689 84.0924 137.472 83.091 137.039 82.1911C136.613 81.2776 135.97 80.5401 135.138 80.0055Z" fill="black"/>
<path d="M142.547 73.0362H142.269C141.694 73.0362 141.194 73.2459 140.788 73.6519C140.375 74.0647 140.172 74.5586 140.172 75.1337V75.3029C140.172 75.878 140.382 76.3788 140.788 76.7847C141.079 77.0757 141.424 77.2719 141.803 77.3531C141.762 77.6914 141.681 77.9688 141.559 78.1515C141.37 78.4493 141.072 78.7131 140.686 78.95C140.246 79.2139 140.003 79.6266 140.003 80.1138C140.003 80.4724 140.138 80.8039 140.388 81.0746C140.646 81.352 140.984 81.4941 141.356 81.4941C141.627 81.4941 141.884 81.4197 142.114 81.2776C143.792 80.2559 144.644 78.7334 144.644 76.7712V75.1405C144.644 74.5654 144.435 74.0647 144.029 73.6587C143.616 73.2392 143.115 73.0362 142.547 73.0362Z" fill="black"/>
<path d="M160.579 84.0044C161.019 83.6797 161.405 83.2872 161.73 82.8271C162.305 82.0287 162.596 81.0205 162.596 79.8364C162.596 78.1448 161.987 76.7712 160.782 75.763C159.605 74.7751 157.947 74.2812 155.85 74.2812H149.32C148.819 74.2812 148.38 74.4706 148.034 74.8225C147.696 75.1743 147.52 75.6074 147.52 76.1013V92.8887C147.52 93.3826 147.703 93.8224 148.041 94.1608C148.38 94.4991 148.826 94.6818 149.313 94.6818H156.005C158.577 94.6818 160.512 94.154 161.75 93.112C163.022 92.0497 163.665 90.5678 163.665 88.7071C163.665 87.3876 163.259 86.2779 162.454 85.4051C161.939 84.8367 161.31 84.3631 160.579 84.0044ZM160.14 88.6056C160.14 89.4446 159.849 90.0671 159.24 90.5137C158.597 90.9941 157.426 91.2377 155.762 91.2377H151.14V86.0005H155.789C160.14 86.0005 160.14 87.9628 160.14 88.6056ZM151.147 82.6309V77.732H155.66C156.77 77.732 157.643 77.9553 158.252 78.4019C158.813 78.8146 159.091 79.3424 159.091 80.0326C159.091 80.8649 158.827 81.4874 158.292 81.9339C157.731 82.4008 156.689 82.6376 155.187 82.6376H151.147V82.6309Z" fill="black"/>
<path d="M175.783 80.0529C174.822 79.4913 173.645 79.2003 172.278 79.2003C170.587 79.2003 168.909 79.5522 167.278 80.2423C166.595 80.5333 166.222 81.0814 166.222 81.7986C166.222 82.2384 166.385 82.6309 166.689 82.9354C166.994 83.2398 167.379 83.4022 167.799 83.4022C167.941 83.4022 168.103 83.3752 168.293 83.3278L168.334 83.3143C168.976 83.0978 169.565 82.9421 170.079 82.8339C170.587 82.7324 171.175 82.6782 171.839 82.6782C172.962 82.6782 173.787 82.9015 174.281 83.3413C174.701 83.7203 174.938 84.3495 174.985 85.2292H172.197C169.998 85.2292 168.293 85.6757 167.122 86.5554C165.904 87.4756 165.282 88.7206 165.282 90.2633C165.282 91.1971 165.519 92.0361 165.979 92.7601C166.439 93.4841 167.068 94.039 167.853 94.4111C168.618 94.7765 169.457 94.966 170.343 94.966C172.157 94.966 173.733 94.4652 175.046 93.4841C175.12 93.7954 175.283 94.0728 175.513 94.3028C175.851 94.6412 176.298 94.8239 176.785 94.8239C177.279 94.8239 177.712 94.6479 178.064 94.3096C178.415 93.9713 178.605 93.5247 178.605 93.024V85.1953C178.605 84.1533 178.375 83.1722 177.921 82.279C177.468 81.3723 176.744 80.6213 175.783 80.0529ZM173.374 91.1159C172.705 91.4677 171.994 91.6504 171.277 91.6504C170.384 91.6504 169.734 91.488 169.389 91.1836C169.058 90.8858 168.895 90.4934 168.895 89.9927C168.895 88.9101 170.113 88.362 172.522 88.362H174.985V89.9182C174.545 90.3851 174.004 90.7911 173.374 91.1159Z" fill="black"/>
<path d="M189.289 79.2003H189.154C187.773 79.2003 186.501 79.7687 185.344 80.8987C185.29 80.513 185.114 80.1611 184.83 79.877C184.478 79.5251 184.032 79.3424 183.538 79.3424C183.037 79.3424 182.597 79.5319 182.252 79.8837C181.914 80.2356 181.738 80.6686 181.738 81.1626V93.0308C181.738 93.5247 181.92 93.9645 182.259 94.3096C182.597 94.6479 183.044 94.8306 183.531 94.8306C184.025 94.8306 184.458 94.6547 184.81 94.3164C185.162 93.9781 185.351 93.5315 185.351 93.0308V84.7893C185.784 84.1736 186.319 83.6729 186.934 83.3143C187.584 82.9354 188.308 82.7391 189.086 82.7391H189.221C189.729 82.7391 190.162 82.5767 190.507 82.2587C190.859 81.9339 191.041 81.5009 191.041 80.9934C191.041 80.4995 190.872 80.0732 190.541 79.7281C190.223 79.383 189.783 79.2003 189.289 79.2003Z" fill="black"/>
<path d="M205.021 91.9752L200.318 85.7434L203.925 82.5158L203.945 82.4955C204.365 82.076 204.574 81.6294 204.574 81.1626C204.574 80.7024 204.432 80.2965 204.162 79.9581C203.857 79.586 203.404 79.3965 202.808 79.3965C202.395 79.3965 201.996 79.5657 201.604 79.904L195.947 85.1344V75.0864C195.947 74.5924 195.764 74.1458 195.413 73.794C195.061 73.4421 194.614 73.2594 194.12 73.2594C193.62 73.2594 193.18 73.4489 192.835 73.8008C192.496 74.1526 192.32 74.5857 192.32 75.0796V93.0308C192.32 93.5247 192.503 93.9645 192.841 94.3028C193.18 94.6412 193.626 94.8239 194.113 94.8239C194.607 94.8239 195.04 94.6479 195.392 94.3096C195.744 93.9713 195.934 93.5247 195.934 93.024V89.7017L197.706 88.0913L202.111 94.0796C202.294 94.3096 202.511 94.4923 202.768 94.6209C203.032 94.7494 203.295 94.8171 203.566 94.8171C204.074 94.8171 204.507 94.6547 204.852 94.3367C205.204 94.0119 205.386 93.5653 205.386 93.0443C205.413 92.6789 205.278 92.3135 205.021 91.9752Z" fill="black"/>
</svg>
