<svg width="11" height="10" viewBox="0 0 11 10" fill="none" xmlns="http://www.w3.org/2000/svg">
<mask id="path-1-outside-1_2604_7615" maskUnits="userSpaceOnUse" x="0.285706" y="0" width="10" height="10" fill="black">
<rect fill="white" x="0.285706" width="10" height="10"/>
<path fill-rule="evenodd" clip-rule="evenodd" d="M9.14193 7.93093C8.89499 8.6813 7.92752 9.05569 7.23631 8.99329C6.2923 8.90796 5.2651 8.40718 4.48536 7.85573C3.33921 7.04509 2.2656 5.79127 1.64 4.46065C1.19786 3.52042 1.09866 2.3642 1.75627 1.50716C1.99947 1.19037 2.26294 1.02131 2.65761 1.00158C3.20588 0.974912 3.28268 1.2885 3.47095 1.77702C3.61122 2.14234 3.79842 2.51512 3.90295 2.89378C4.09869 3.60042 3.41441 3.62975 3.32801 4.20733C3.27468 4.57158 3.71575 5.0601 3.91522 5.31982C4.29969 5.82566 4.77059 6.25952 5.30616 6.60138C5.61017 6.79284 6.09977 7.13789 6.4475 6.9475C6.98298 6.65418 6.93284 5.75127 7.68112 6.05686C8.06885 6.21473 8.44432 6.44245 8.81446 6.64191C9.38673 6.94963 9.36006 7.26855 9.14193 7.93093C9.30513 7.43601 8.97872 8.42585 9.14193 7.93093Z"/>
</mask>
<path d="M7.23631 8.99329L7.14629 9.98923L7.1464 9.98924L7.23631 8.99329ZM4.48536 7.85573L3.90791 8.67216L3.90794 8.67219L4.48536 7.85573ZM1.64 4.46065L2.54497 4.03517L2.54494 4.03511L1.64 4.46065ZM1.75627 1.50716L0.963061 0.898207L0.962905 0.898411L1.75627 1.50716ZM2.65761 1.00158L2.60903 0.00275713L2.60767 0.00282496L2.65761 1.00158ZM3.47095 1.77702L4.4045 1.41857L4.40405 1.41741L3.47095 1.77702ZM3.90295 2.89378L2.93901 3.15989L2.93924 3.16072L3.90295 2.89378ZM3.32801 4.20733L2.33901 4.05938L2.33856 4.06245L3.32801 4.20733ZM3.91522 5.31982L4.71136 4.71469L4.70831 4.71073L3.91522 5.31982ZM5.30616 6.60138L4.76812 7.44431L4.77325 7.44755L5.30616 6.60138ZM6.4475 6.9475L6.92775 7.82463L6.92793 7.82453L6.4475 6.9475ZM7.68112 6.05686L7.30304 6.98264L7.30403 6.98304L7.68112 6.05686ZM8.81446 6.64191L8.34007 7.52223L8.34086 7.52265L8.81446 6.64191ZM9.14193 7.93093L10.0916 8.2441L10.0917 8.24373L9.14193 7.93093ZM9.14193 7.93093L8.19211 7.61813L10.0916 8.2441L9.14193 7.93093ZM8.19204 7.61834C8.1772 7.66343 8.11299 7.77022 7.90846 7.8725C7.70409 7.9747 7.47453 8.01073 7.32622 7.99734L7.1464 9.98924C7.6893 10.0383 8.28908 9.91829 8.80298 9.6613C9.31672 9.4044 9.85972 8.9488 10.0918 8.24352L8.19204 7.61834ZM7.32634 7.99735C6.62705 7.93414 5.76878 7.53858 5.06277 7.03928L3.90794 8.67219C4.76141 9.27578 5.95756 9.88178 7.14629 9.98923L7.32634 7.99735ZM5.0628 7.0393C4.05432 6.32603 3.09524 5.20556 2.54497 4.03517L0.735032 4.88613C1.43597 6.37699 2.62411 7.76416 3.90791 8.67216L5.0628 7.0393ZM2.54494 4.03511C2.18765 3.27532 2.20942 2.5593 2.54963 2.11591L0.962905 0.898411C-0.0120907 2.16909 0.208073 3.76552 0.73506 4.88619L2.54494 4.03511ZM2.54947 2.11611C2.58375 2.07147 2.60929 2.04442 2.62638 2.02848C2.64268 2.01327 2.65079 2.00862 2.65133 2.00831C2.65187 2.008 2.65185 2.00804 2.65164 2.00812C2.65144 2.00821 2.65226 2.00783 2.65468 2.00715C2.65907 2.00592 2.67491 2.00196 2.70754 2.00033L2.60767 0.00282496C2.27098 0.0196587 1.9482 0.104315 1.64895 0.277636C1.35735 0.446526 1.13738 0.671144 0.963061 0.898207L2.54947 2.11611ZM2.70619 2.0004C2.75149 1.99819 2.71213 2.00727 2.63308 1.97711C2.5924 1.96159 2.5502 1.93903 2.51036 1.90947C2.47114 1.88037 2.4431 1.8511 2.42501 1.82897C2.40783 1.80794 2.40088 1.7949 2.40244 1.79769C2.40424 1.8009 2.41111 1.81386 2.42369 1.84294C2.43638 1.87229 2.45103 1.909 2.47069 1.96028C2.48043 1.98569 2.49033 2.01186 2.50172 2.0419C2.5128 2.07115 2.52499 2.10327 2.53784 2.13662L4.40405 1.41741C4.36841 1.32492 4.31226 1.17134 4.25939 1.04908C4.20296 0.918603 4.11519 0.736535 3.97354 0.563242C3.81933 0.374569 3.61322 0.210434 3.34595 0.108472C3.09242 0.0117522 2.83786 -0.00837135 2.60903 0.00275809L2.70619 2.0004ZM2.5374 2.13546C2.6136 2.33392 2.7124 2.55896 2.77696 2.71425C2.85022 2.8905 2.90374 3.03213 2.93901 3.15989L4.86689 2.62766C4.79763 2.37677 4.70528 2.14268 4.62374 1.94654C4.5335 1.72944 4.46857 1.58544 4.4045 1.41857L2.5374 2.13546ZM2.93924 3.16072C2.94509 3.18183 2.92262 3.10653 2.96155 2.99259C2.99332 2.89962 3.04149 2.86197 2.99182 2.91494C2.95409 2.95517 2.94913 2.95811 2.88002 3.02971C2.82954 3.082 2.75978 3.15652 2.68982 3.24727C2.54014 3.44145 2.39174 3.70693 2.33902 4.05938L4.31701 4.35527C4.30191 4.45624 4.17237 4.57985 4.45075 4.28297C4.55848 4.16808 4.74642 3.9545 4.85413 3.63923C4.96901 3.303 4.95868 2.95904 4.86666 2.62683L2.93924 3.16072ZM2.33856 4.06245C2.29266 4.37598 2.36027 4.65098 2.43005 4.84177C2.50155 5.03729 2.59933 5.20916 2.68541 5.34318C2.84382 5.58982 3.06821 5.85872 3.12212 5.92892L4.70831 4.71073C4.6768 4.66969 4.6422 4.62632 4.61232 4.58885C4.58053 4.54899 4.55082 4.51177 4.52068 4.47308C4.45989 4.39505 4.40874 4.32547 4.36822 4.26237C4.34847 4.23161 4.33379 4.20632 4.32329 4.1863C4.31815 4.1765 4.31447 4.16884 4.31195 4.16326C4.3107 4.1605 4.30981 4.15841 4.30922 4.15695C4.30862 4.1555 4.30836 4.1548 4.30838 4.15483C4.30839 4.15486 4.30871 4.15575 4.30926 4.15747C4.3098 4.15918 4.31061 4.16186 4.31158 4.16547C4.31346 4.17255 4.31619 4.18418 4.31858 4.19998C4.32327 4.23109 4.32744 4.2841 4.31746 4.3522L2.33856 4.06245ZM3.11909 5.92495C3.5749 6.52464 4.13318 7.03901 4.76813 7.4443L5.8442 5.75846C5.408 5.48003 5.02448 5.12667 4.71135 4.7147L3.11909 5.92495ZM4.77325 7.44755C4.88198 7.51603 5.17119 7.71163 5.47024 7.83837C5.74492 7.95477 6.33438 8.14952 6.92775 7.82463L5.96726 6.07037C6.08949 6.00344 6.20005 5.99997 6.25095 6.00435C6.29248 6.00792 6.29611 6.01617 6.25063 5.9969C6.20849 5.97904 6.15211 5.94965 6.07732 5.9049C5.99572 5.85607 5.93613 5.81633 5.83908 5.75521L4.77325 7.44755ZM6.92793 7.82453C7.26001 7.64263 7.46477 7.3851 7.58808 7.2036C7.64973 7.11287 7.70204 7.02403 7.73792 6.963C7.77945 6.89235 7.79977 6.85775 7.81917 6.82835C7.8663 6.75693 7.81112 6.87313 7.63897 6.94626C7.42531 7.03702 7.27251 6.97017 7.30304 6.98264L8.05919 5.13109C7.71558 4.99076 7.28845 4.92218 6.85701 5.10546C6.46707 5.2711 6.25065 5.57406 6.14984 5.72683C6.09528 5.80953 6.04496 5.89638 6.01376 5.94944C5.97692 6.01212 5.95443 6.04925 5.93378 6.07963C5.89252 6.14038 5.90273 6.10571 5.96708 6.07046L6.92793 7.82453ZM7.30403 6.98304C7.62525 7.11382 7.90707 7.28889 8.34007 7.52223L9.28884 5.76159C8.98157 5.59601 8.51245 5.31563 8.0582 5.13068L7.30403 6.98304ZM8.34086 7.52265C8.42454 7.56765 8.42184 7.57967 8.39176 7.54598C8.37447 7.52661 8.35195 7.49641 8.33161 7.45547C8.31108 7.41418 8.29837 7.37324 8.29165 7.33731C8.27925 7.27104 8.29206 7.24745 8.28075 7.30713C8.27556 7.33451 8.26658 7.37305 8.25143 7.42679C8.23633 7.48039 8.2169 7.54285 8.19211 7.61813L10.0917 8.24373C10.1895 7.94691 10.3495 7.46088 10.2575 6.96954C10.1405 6.34401 9.70079 5.9831 9.28805 5.76117L8.34086 7.52265ZM8.19223 7.61776C8.17616 7.6665 8.15475 7.73141 8.15207 7.73956C8.15088 7.74316 8.14835 7.75081 8.14785 7.75234C8.14585 7.7584 8.14698 7.75497 8.14561 7.75913C8.14546 7.75958 8.14517 7.76045 8.14517 7.76046C8.14516 7.7605 8.14514 7.76056 8.14513 7.76058C8.14512 7.76062 8.14512 7.76062 8.14512 7.76063C8.78166 9.0235 10.0445 8.38697 10.0445 8.38696C10.0445 8.38696 10.0445 8.38695 10.0445 8.38694C10.0445 8.38692 10.0445 8.38691 10.0445 8.38689C10.0445 8.38687 10.0445 8.38685 10.0446 8.38683C10.0448 8.386 10.0449 8.38566 10.0457 8.38329C10.0704 8.30855 10.0259 8.44354 10.0522 8.36372C10.0546 8.35626 10.0543 8.35722 10.0571 8.34877C10.0581 8.34564 10.0616 8.33504 10.0629 8.3311C10.0702 8.30898 10.062 8.334 10.0695 8.31125C10.0772 8.28771 10.0687 8.31377 10.0766 8.28977C10.0959 8.23121 10.0646 8.32604 10.084 8.26721C10.0931 8.23972 10.0825 8.27167 10.0916 8.2441C10.1027 8.21036 10.0843 8.26624 10.0954 8.23251C10.0973 8.22689 10.0955 8.23235 10.0973 8.22674C10.0975 8.22626 10.0977 8.22578 10.0978 8.2253C10.098 8.22482 10.0981 8.22434 10.0983 8.22386C10.0985 8.22338 10.0986 8.2229 10.0988 8.22242C10.0989 8.22195 10.0991 8.22147 10.0992 8.22099C10.0993 8.22096 10.1011 8.2153 10.1011 8.21528C10.1013 8.2148 10.1014 8.21433 10.1016 8.21385C10.1018 8.21338 10.1019 8.21291 10.1021 8.21244C10.1144 8.17488 10.0906 8.24716 10.103 8.20961C10.1032 8.20914 10.1033 8.20866 10.1035 8.2082C10.1036 8.20773 10.1038 8.20726 10.1039 8.20679C10.1063 8.19955 10.1025 8.21122 10.1049 8.20399C10.1067 8.19838 10.1048 8.20401 10.1067 8.19843C10.1165 8.16869 10.1112 8.18466 10.1203 8.1571C10.1389 8.1007 10.1137 8.17726 10.1311 8.12448C10.1496 8.06816 10.1206 8.15615 10.1375 8.1049C10.138 8.10339 10.1375 8.10502 10.138 8.10359C10.1381 8.10309 10.138 8.10351 10.1381 8.10304C10.1384 8.10231 10.1381 8.10326 10.1383 8.10256C10.1386 8.10172 10.1385 8.10181 10.1387 8.10137C10.1387 8.10123 10.1387 8.10137 10.1387 8.10126C10.1387 8.10125 10.1387 8.10124 10.1387 8.10123C10.1387 8.10123 8.87588 8.73776 8.23934 7.47489C8.23929 7.47505 8.23937 7.4748 8.23928 7.47507C8.23753 7.48039 8.24075 7.47063 8.23885 7.47639C8.22699 7.51235 8.24688 7.45204 8.23239 7.49597C8.23017 7.50269 8.22265 7.52549 8.21733 7.54164C8.21335 7.5537 8.21097 7.56094 8.20612 7.57562C8.20362 7.58321 8.20225 7.58736 8.19952 7.59564C8.19923 7.59652 8.19894 7.5974 8.19865 7.59829C8.19836 7.59918 8.19806 7.60007 8.19777 7.60097C8.19711 7.60295 8.19663 7.60441 8.19596 7.60643C8.19032 7.62356 8.19794 7.60045 8.19223 7.61776L10.0916 8.2441C10.0919 8.24313 10.0923 8.24217 10.0926 8.24122C10.0929 8.24026 10.0932 8.23931 10.0935 8.23837C10.0938 8.23742 10.0941 8.23648 10.0944 8.23555C10.0948 8.23462 10.0951 8.23369 10.0954 8.23277C10.0957 8.23185 10.096 8.23093 10.0963 8.23002C10.0966 8.22911 10.0969 8.22821 10.0972 8.22731C10.0975 8.22641 10.0978 8.22551 10.098 8.22462C10.0983 8.22374 10.0986 8.22285 10.0989 8.22198C10.0992 8.2211 10.0995 8.22023 10.0998 8.21936C10.1001 8.21849 10.1004 8.21763 10.1006 8.21678C10.1009 8.21592 10.1012 8.21507 10.1015 8.21423C10.1018 8.21338 10.102 8.21254 10.1023 8.21171C10.1026 8.21087 10.1029 8.21005 10.1031 8.20922C10.1034 8.2084 10.1037 8.20758 10.1039 8.20677C10.1042 8.20596 10.1045 8.20515 10.1047 8.20435C10.105 8.20355 10.1053 8.20275 10.1055 8.20196C10.1058 8.20117 10.106 8.20038 10.1063 8.1996C10.1066 8.19882 10.1068 8.19805 10.1071 8.19728C10.1077 8.19539 10.108 8.19457 10.1086 8.19272C10.1088 8.19197 10.1091 8.19123 10.1093 8.19049C10.1095 8.18975 10.1098 8.18902 10.11 8.18829C10.1103 8.18756 10.1105 8.18684 10.1107 8.18612C10.111 8.1854 10.1112 8.18469 10.1114 8.18398C10.1117 8.18327 10.1119 8.18257 10.1121 8.18188C10.1124 8.18118 10.1126 8.18049 10.1128 8.1798C10.1131 8.17911 10.1133 8.17843 10.1135 8.17775C10.1137 8.17708 10.1139 8.1764 10.1142 8.17574C10.1144 8.17507 10.1146 8.17441 10.1148 8.17375C10.115 8.1731 10.1153 8.17244 10.1155 8.1718C10.1157 8.17115 10.1159 8.17051 10.1161 8.16987C10.1163 8.16923 10.1165 8.1686 10.1167 8.16798C10.1169 8.16735 10.1171 8.16673 10.1173 8.16611C10.1175 8.16549 10.1177 8.16488 10.1179 8.16427C10.1185 8.16263 10.1186 8.1623 10.1191 8.16069C10.1193 8.1601 10.1195 8.15952 10.1197 8.15894C10.1199 8.15837 10.1201 8.15779 10.1203 8.15722C10.1205 8.15666 10.1206 8.15609 10.1208 8.15553C10.121 8.15498 10.1212 8.15442 10.1214 8.15387C10.1216 8.15332 10.1217 8.15278 10.1219 8.15224C10.1221 8.1517 10.1223 8.15117 10.1224 8.15064C10.1226 8.15011 10.1228 8.14958 10.123 8.14906C10.1231 8.14854 10.1233 8.14803 10.1235 8.14751C10.1241 8.14566 10.1249 8.14331 10.1254 8.14161C10.1256 8.14113 10.1257 8.14066 10.1259 8.1402C10.126 8.13973 10.1262 8.13927 10.1263 8.13882C10.1265 8.13836 10.1266 8.13791 10.1268 8.13746C10.1269 8.13702 10.1271 8.13658 10.1272 8.13614C10.1274 8.1357 10.1275 8.13527 10.1277 8.13484C10.1278 8.13441 10.1279 8.13399 10.1281 8.13357C10.1282 8.13315 10.1283 8.13273 10.1285 8.13232C10.1286 8.13191 10.1288 8.13151 10.1289 8.1311C10.1294 8.1296 10.1292 8.13022 10.1297 8.12875C10.1298 8.12836 10.1299 8.12798 10.13 8.12761C10.1302 8.12723 10.1303 8.12686 10.1304 8.1265C10.1305 8.12613 10.1306 8.12577 10.1308 8.12541C10.1309 8.12505 10.131 8.1247 10.1311 8.12435C10.1312 8.124 10.1313 8.12365 10.1315 8.12331C10.1316 8.12297 10.1317 8.12264 10.1318 8.1223C10.1319 8.12197 10.132 8.12164 10.1321 8.12132C10.1322 8.121 10.1323 8.12068 10.1324 8.12036C10.1325 8.12004 10.1326 8.11973 10.1327 8.11943C10.1328 8.11912 10.1329 8.11882 10.133 8.11852C10.1331 8.11822 10.1332 8.11792 10.1333 8.11763C10.1334 8.11734 10.1335 8.11706 10.1336 8.11678C10.1337 8.11649 10.1338 8.11622 10.1339 8.11594C10.134 8.11567 10.1341 8.1154 10.1342 8.11513C10.1342 8.11487 10.1343 8.1146 10.1344 8.11435C10.1345 8.11409 10.1346 8.11384 10.1347 8.11359C10.1347 8.11334 10.1348 8.11309 10.1349 8.11285C10.135 8.11261 10.1351 8.11237 10.1351 8.11214C10.1352 8.1119 10.1355 8.11099 10.1356 8.11078C10.1357 8.11057 10.1357 8.11035 10.1358 8.11014C10.1359 8.10993 10.1359 8.10973 10.136 8.10953C10.1361 8.10932 10.1361 8.10913 10.1362 8.10893C10.1363 8.10874 10.1363 8.10855 10.1364 8.10836C10.1367 8.10753 10.1365 8.10809 10.1367 8.10729C10.1369 8.10681 10.1369 8.10675 10.1371 8.1063C10.1371 8.10615 10.1372 8.106 10.1372 8.10585C10.1373 8.1057 10.1373 8.10555 10.1374 8.10541C10.1374 8.10527 10.1374 8.10513 10.1375 8.105C10.1375 8.10487 10.1376 8.10474 10.1376 8.10461C10.1378 8.10396 10.1377 8.10452 10.1379 8.1039C10.1379 8.10379 10.1379 8.10368 10.138 8.10357C10.138 8.10347 10.138 8.10337 10.1381 8.10327C10.1381 8.10317 10.1381 8.10308 10.1382 8.10299C10.1382 8.1029 10.1382 8.10281 10.1382 8.10273C10.1383 8.10247 10.1385 8.10204 10.1385 8.1019C10.1386 8.10155 10.1386 8.10164 10.1387 8.1014C10.1387 8.10132 10.1387 8.10133 10.1387 8.10128C10.1387 8.10124 10.1387 8.10124 10.1387 8.10123C9.5022 6.83836 8.23934 7.47489 8.23934 7.4749C8.23934 7.4749 8.23933 7.47491 8.23933 7.47492C8.23932 7.47495 8.23931 7.47498 8.23929 7.47503C8.23913 7.47553 8.2392 7.47533 8.2389 7.47622C8.23888 7.4763 8.23885 7.47637 8.23883 7.47645C8.2388 7.47653 8.23877 7.47662 8.23874 7.4767C8.23865 7.47698 8.23866 7.47695 8.23856 7.47725C8.23847 7.47754 8.23846 7.47757 8.23836 7.47788C8.23834 7.47791 8.23815 7.47851 8.23813 7.47857C8.238 7.47896 8.23776 7.47967 8.23761 7.48015C8.23747 7.48055 8.23745 7.48062 8.23731 7.48104C8.23726 7.4812 8.23721 7.48135 8.23716 7.48151C8.2371 7.48167 8.23705 7.48183 8.237 7.482C8.23662 7.48316 8.23671 7.48286 8.2363 7.4841C8.23624 7.48429 8.23618 7.48448 8.23612 7.48467C8.23605 7.48486 8.23599 7.48505 8.23593 7.48525C8.23586 7.48544 8.2358 7.48564 8.23573 7.48584C8.23566 7.48604 8.2356 7.48625 8.23553 7.48645C8.23546 7.48666 8.23539 7.48687 8.23532 7.48708C8.23525 7.48729 8.23518 7.4875 8.23511 7.48772C8.23504 7.48793 8.23497 7.48815 8.2349 7.48837C8.23482 7.48859 8.23475 7.48881 8.23468 7.48904C8.23454 7.48944 8.23436 7.48999 8.23422 7.49042C8.23414 7.49065 8.23407 7.49089 8.23399 7.49113C8.23391 7.49137 8.23383 7.49161 8.23375 7.49185C8.23367 7.4921 8.23359 7.49234 8.2335 7.49259C8.23342 7.49284 8.23334 7.49309 8.23326 7.49335C8.23317 7.4936 8.23309 7.49385 8.233 7.49411C8.23292 7.49437 8.23283 7.49463 8.23275 7.49489C8.23227 7.49634 8.23217 7.49663 8.23167 7.49814C8.23158 7.49842 8.23149 7.4987 8.2314 7.49899C8.2313 7.49927 8.23121 7.49956 8.23111 7.49984C8.23102 7.50013 8.23092 7.50042 8.23083 7.50071C8.23073 7.501 8.23063 7.5013 8.23054 7.50159C8.23025 7.50246 8.22964 7.50431 8.22933 7.50524C8.22923 7.50556 8.22913 7.50587 8.22902 7.50619C8.22892 7.5065 8.22881 7.50682 8.22871 7.50714C8.2286 7.50746 8.2285 7.50778 8.22839 7.5081C8.22828 7.50843 8.22818 7.50875 8.22807 7.50908C8.22796 7.50941 8.22785 7.50974 8.22774 7.51007C8.22763 7.5104 8.22752 7.51073 8.22741 7.51107C8.2273 7.5114 8.22719 7.51174 8.22708 7.51207C8.22697 7.51241 8.22686 7.51275 8.22674 7.51309C8.22663 7.51344 8.22652 7.51378 8.2264 7.51412C8.22629 7.51447 8.22618 7.51482 8.22606 7.51517C8.22576 7.51609 8.22567 7.51634 8.22536 7.51728C8.2248 7.519 8.22451 7.51985 8.22393 7.52162C8.22381 7.52199 8.22369 7.52236 8.22356 7.52273C8.22344 7.52311 8.22332 7.52348 8.2232 7.52385C8.22307 7.52423 8.22295 7.52461 8.22282 7.52498C8.2227 7.52536 8.22257 7.52574 8.22245 7.52612C8.22232 7.5265 8.2222 7.52689 8.22207 7.52727C8.22194 7.52765 8.22182 7.52804 8.22169 7.52843C8.22154 7.52886 8.22106 7.53032 8.22092 7.53077C8.22079 7.53116 8.22066 7.53155 8.22053 7.53195C8.2204 7.53234 8.22027 7.53274 8.22013 7.53314C8.22 7.53354 8.21987 7.53394 8.21974 7.53434C8.21961 7.53474 8.21947 7.53514 8.21934 7.53554C8.21932 7.5356 8.21856 7.53791 8.21854 7.53798C8.2184 7.53839 8.21827 7.5388 8.21813 7.53921C8.218 7.53962 8.21786 7.54004 8.21772 7.54045C8.21711 7.54232 8.21669 7.54357 8.21607 7.54548C8.21593 7.5459 8.21579 7.54632 8.21565 7.54675C8.21551 7.54718 8.21536 7.5476 8.21522 7.54803C8.21491 7.54897 8.21468 7.54966 8.21437 7.55061C8.21406 7.55157 8.21383 7.55225 8.21351 7.55322C8.21337 7.55365 8.21322 7.55409 8.21308 7.55453C8.21293 7.55497 8.21279 7.55541 8.21264 7.55585C8.2125 7.55629 8.21235 7.55673 8.21221 7.55717C8.21206 7.55762 8.21192 7.55806 8.21177 7.5585C8.21162 7.55895 8.21148 7.55939 8.21133 7.55984C8.21118 7.56029 8.21103 7.56073 8.21089 7.56118C8.21074 7.56163 8.21059 7.56208 8.21044 7.56253C8.21029 7.56298 8.21015 7.56343 8.21 7.56388C8.20985 7.56433 8.2097 7.56478 8.20955 7.56523C8.2094 7.56569 8.20925 7.56614 8.2091 7.5666C8.20895 7.56705 8.2088 7.56751 8.20865 7.56796C8.2085 7.56842 8.20835 7.56888 8.2082 7.56933C8.20805 7.56979 8.2079 7.57025 8.20774 7.57071C8.20759 7.57117 8.20744 7.57163 8.20729 7.57209C8.20628 7.57516 8.20464 7.58012 8.2036 7.58327C8.20277 7.58578 8.20257 7.58641 8.20173 7.58894C8.20158 7.58941 8.20142 7.58989 8.20126 7.59036C8.20111 7.59084 8.20095 7.59132 8.20079 7.59179C8.20064 7.59227 8.20048 7.59274 8.20032 7.59322C8.20016 7.5937 8.20001 7.59418 8.19985 7.59465C8.19969 7.59513 8.19953 7.59561 8.19938 7.59609C8.19922 7.59657 8.19906 7.59704 8.1989 7.59752C8.19874 7.598 8.19859 7.59848 8.19843 7.59896C8.19827 7.59944 8.19811 7.59992 8.19795 7.6004C8.1978 7.60088 8.19764 7.60136 8.19748 7.60184C8.19732 7.60232 8.19716 7.6028 8.197 7.60328C8.19684 7.60377 8.19669 7.60425 8.19653 7.60473C8.19637 7.60521 8.19621 7.60569 8.19605 7.60617C8.19589 7.60666 8.19573 7.60714 8.19557 7.60762C8.19541 7.6081 8.19525 7.60858 8.1951 7.60907C8.19494 7.60955 8.19478 7.61003 8.19462 7.61052C8.19446 7.611 8.1943 7.61148 8.19414 7.61196C8.19398 7.61245 8.19382 7.61293 8.19366 7.61341C8.1935 7.6139 8.19334 7.61438 8.19318 7.61486C8.19303 7.61535 8.19287 7.61583 8.19271 7.61631C8.19255 7.6168 8.19239 7.61728 8.19223 7.61776C8.19207 7.61825 8.19191 7.61873 8.19175 7.61921C8.19159 7.6197 8.19143 7.62018 8.19127 7.62066C8.19115 7.62104 8.19044 7.62318 8.19032 7.62356C8.19016 7.62404 8.19 7.62453 8.18984 7.62501C8.18968 7.62549 8.18952 7.62597 8.18936 7.62646C8.1892 7.62694 8.18904 7.62742 8.18888 7.6279C8.18872 7.62839 8.18857 7.62887 8.18841 7.62935C8.18798 7.63065 8.18788 7.63094 8.18745 7.63224C8.1873 7.63272 8.18714 7.6332 8.18698 7.63368C8.18682 7.63416 8.18666 7.63464 8.1865 7.63512C8.18635 7.6356 8.18619 7.63608 8.18603 7.63656C8.18587 7.63704 8.18571 7.63752 8.18555 7.638C8.1854 7.63848 8.18524 7.63896 8.18508 7.63944C8.18492 7.63991 8.18477 7.64039 8.18461 7.64087C8.18447 7.6413 8.1838 7.64331 8.18366 7.64373C8.18351 7.64421 8.18335 7.64468 8.18319 7.64516C8.18304 7.64563 8.18288 7.64611 8.18272 7.64658C8.18257 7.64706 8.18241 7.64753 8.18226 7.64801C8.1821 7.64848 8.18194 7.64895 8.18179 7.64943C8.18163 7.6499 8.18148 7.65037 8.18132 7.65084C8.18116 7.65131 8.18101 7.65178 8.18085 7.65226C8.18037 7.65372 8.17948 7.65643 8.179 7.65788C8.17885 7.65834 8.17869 7.65881 8.17854 7.65927C8.17839 7.65974 8.17823 7.6602 8.17808 7.66066C8.17793 7.66113 8.17778 7.66159 8.17762 7.66205C8.17747 7.66251 8.17732 7.66297 8.17717 7.66344C8.17702 7.6639 8.17686 7.66436 8.17671 7.66481C8.17656 7.66527 8.17641 7.66573 8.17626 7.66619C8.17611 7.66665 8.17596 7.66711 8.17581 7.66756C8.17566 7.66802 8.17551 7.66847 8.17536 7.66893C8.17521 7.66938 8.17506 7.66984 8.17491 7.67029C8.17476 7.67074 8.17461 7.67119 8.17446 7.67165C8.17431 7.6721 8.17416 7.67255 8.17401 7.673C8.17387 7.67345 8.17372 7.6739 8.17357 7.67434C8.17342 7.67479 8.17328 7.67524 8.17313 7.67568C8.17298 7.67613 8.17283 7.67658 8.17269 7.67702C8.17229 7.67823 8.17221 7.67847 8.17181 7.67968C8.17167 7.68012 8.17152 7.68055 8.17138 7.68099C8.17123 7.68143 8.17109 7.68187 8.17094 7.68231C8.1708 7.68274 8.17066 7.68318 8.17051 7.68361C8.17037 7.68405 8.17023 7.68448 8.17009 7.68491C8.16805 7.69109 8.16537 7.69921 8.16354 7.70476C8.16143 7.71116 8.15955 7.71685 8.15771 7.72243C8.1576 7.72277 8.15749 7.72311 8.15738 7.72345C8.15727 7.72379 8.15716 7.72412 8.15704 7.72446C8.15693 7.72479 8.15682 7.72513 8.15672 7.72546C8.15661 7.72579 8.1565 7.72612 8.15639 7.72644C8.15602 7.72757 8.15612 7.72727 8.15575 7.72838C8.15564 7.7287 8.15554 7.72902 8.15544 7.72934C8.15533 7.72965 8.15523 7.72997 8.15513 7.73028C8.15502 7.73059 8.15492 7.7309 8.15482 7.73121C8.15472 7.73152 8.15462 7.73182 8.15452 7.73213C8.15412 7.73334 8.15432 7.73273 8.15392 7.73393C8.15357 7.73499 8.15369 7.73464 8.15334 7.73568C8.15325 7.73597 8.15315 7.73625 8.15306 7.73654C8.15297 7.73682 8.15287 7.7371 8.15278 7.73738C8.15197 7.73984 8.15143 7.74149 8.15071 7.74367C8.15063 7.74391 8.15055 7.74416 8.15047 7.74439C8.15039 7.74463 8.15031 7.74487 8.15024 7.74511C8.15016 7.74534 8.15008 7.74557 8.15001 7.7458C8.14993 7.74603 8.14986 7.74626 8.14978 7.74649C8.14942 7.74757 8.14926 7.74807 8.14893 7.74907C8.14886 7.74928 8.14879 7.74948 8.14873 7.74968C8.14866 7.74988 8.1486 7.75008 8.14853 7.75028C8.14838 7.75073 8.1483 7.75099 8.14815 7.75142C8.14809 7.75161 8.14803 7.75179 8.14797 7.75197C8.14791 7.75215 8.14785 7.75233 8.1478 7.7525C8.14774 7.75268 8.14768 7.75285 8.14763 7.75302C8.14757 7.75319 8.14751 7.75336 8.14746 7.75352C8.14741 7.75369 8.14735 7.75385 8.1473 7.75401C8.14725 7.75417 8.1472 7.75433 8.14714 7.75448C8.14703 7.75482 8.14696 7.75505 8.14685 7.75537C8.1468 7.75552 8.14676 7.75566 8.14671 7.75579C8.14667 7.75593 8.14662 7.75607 8.14658 7.7562C8.14653 7.75633 8.14649 7.75646 8.14645 7.75659C8.14641 7.75671 8.14637 7.75684 8.14633 7.75696C8.14614 7.75754 8.14606 7.75778 8.1459 7.75827C8.14586 7.75837 8.14583 7.75846 8.1458 7.75855C8.14577 7.75865 8.14574 7.75874 8.14571 7.75882C8.14563 7.75909 8.14563 7.75906 8.14556 7.7593C8.1454 7.75978 8.14519 7.76041 8.14516 7.76049C8.14514 7.76056 8.14514 7.76056 8.14513 7.7606C8.14512 7.76061 8.14512 7.76062 8.14512 7.76063C8.14512 7.76063 9.40797 7.1241 10.0445 8.38697C10.0446 8.38681 10.0445 8.38706 10.0446 8.38679C10.0446 8.38677 10.0446 8.38673 10.0446 8.3867C10.0446 8.38667 10.0446 8.38663 10.0446 8.38659C10.0449 8.3859 10.0445 8.38701 10.0447 8.3863C10.0449 8.38569 10.0446 8.38656 10.0449 8.38592C10.0449 8.38586 10.0449 8.38578 10.0449 8.38571C10.045 8.38563 10.045 8.38555 10.045 8.38547C10.045 8.38539 10.0451 8.3853 10.0451 8.38521C10.0451 8.38512 10.0452 8.38502 10.0452 8.38493C10.0455 8.38401 10.0451 8.38525 10.0454 8.3843C10.0454 8.38419 10.0455 8.38407 10.0455 8.38395C10.0455 8.38384 10.0456 8.38371 10.0456 8.38359C10.0457 8.38346 10.0457 8.38333 10.0458 8.3832C10.0458 8.38306 10.0458 8.38293 10.0459 8.38278C10.046 8.3824 10.0461 8.3823 10.0462 8.38189C10.0465 8.38097 10.0462 8.38186 10.0465 8.38091C10.0467 8.38043 10.0467 8.38035 10.0469 8.37984C10.0469 8.37965 10.047 8.37946 10.0471 8.37927C10.0471 8.37907 10.0472 8.37887 10.0472 8.37867C10.0474 8.37835 10.048 8.37651 10.0481 8.37606C10.0482 8.37583 10.0483 8.37559 10.0483 8.37535C10.0484 8.37511 10.0485 8.37486 10.0486 8.37461C10.0487 8.37412 10.0489 8.37359 10.0491 8.37306C10.0492 8.3728 10.0493 8.37253 10.0494 8.37226C10.0495 8.37198 10.0495 8.3717 10.0496 8.37142C10.0497 8.37114 10.0498 8.37085 10.0499 8.37056C10.05 8.37027 10.0501 8.36998 10.0502 8.36968C10.0506 8.36843 10.051 8.36727 10.0515 8.36589C10.0516 8.36556 10.0517 8.36523 10.0518 8.36488C10.0519 8.36454 10.052 8.3642 10.0521 8.36385C10.0523 8.3635 10.0524 8.36315 10.0525 8.36279C10.0526 8.36243 10.0527 8.36207 10.0528 8.3617C10.0532 8.36048 10.0539 8.35846 10.0544 8.35709C10.0545 8.35669 10.0546 8.35628 10.0548 8.35587C10.0549 8.35546 10.055 8.35505 10.0552 8.35463C10.0552 8.35443 10.0559 8.3523 10.056 8.35206C10.0562 8.35162 10.0563 8.35118 10.0565 8.35073C10.0566 8.35029 10.0568 8.34984 10.0569 8.34938C10.0571 8.34892 10.0572 8.34846 10.0574 8.348C10.0575 8.34754 10.0577 8.34707 10.0578 8.34659C10.0583 8.34503 10.0583 8.34529 10.0588 8.34369C10.0589 8.34319 10.0596 8.34122 10.0598 8.34068C10.0599 8.34017 10.0601 8.33966 10.0603 8.33914C10.0605 8.33862 10.0606 8.33809 10.0608 8.33756C10.0611 8.33656 10.0615 8.33536 10.0619 8.33432C10.0621 8.33378 10.0622 8.33322 10.0624 8.33266C10.0626 8.3321 10.0628 8.33154 10.063 8.33097C10.0632 8.3304 10.0634 8.32983 10.0635 8.32925C10.0637 8.32868 10.0639 8.32809 10.0641 8.32751C10.0643 8.32692 10.0645 8.32633 10.0647 8.32573C10.0649 8.32513 10.0651 8.32453 10.0653 8.32392C10.0655 8.32332 10.0657 8.3227 10.0659 8.32209C10.0661 8.32147 10.0663 8.32085 10.0665 8.32022C10.0667 8.31959 10.0669 8.31896 10.0671 8.31833C10.0674 8.31769 10.0676 8.31705 10.0678 8.3164C10.0684 8.31458 10.0685 8.31432 10.0691 8.31246C10.0702 8.30912 10.0706 8.30771 10.0718 8.30421C10.072 8.30351 10.0723 8.30279 10.0725 8.30208C10.0727 8.30136 10.073 8.30064 10.0732 8.29991C10.0735 8.29918 10.0737 8.29845 10.0739 8.29771C10.0742 8.29697 10.0744 8.29623 10.0747 8.29548C10.0749 8.29473 10.0752 8.29397 10.0754 8.29321C10.0757 8.29246 10.0759 8.29169 10.0762 8.29092C10.0764 8.29015 10.0767 8.28938 10.077 8.28859C10.0772 8.28781 10.0775 8.28703 10.0777 8.28624C10.078 8.28545 10.0783 8.28465 10.0785 8.28385C10.0788 8.28305 10.079 8.28224 10.0793 8.28143C10.0796 8.28061 10.0799 8.2798 10.0801 8.27897C10.0804 8.27815 10.0807 8.27732 10.0809 8.27649C10.0812 8.27565 10.0815 8.27482 10.0818 8.27397C10.0821 8.27313 10.0823 8.27228 10.0826 8.27142C10.0829 8.27057 10.0832 8.2697 10.0835 8.26884C10.0838 8.26797 10.084 8.2671 10.0843 8.26622C10.0846 8.26534 10.0849 8.26446 10.0852 8.26357C10.0855 8.26268 10.0858 8.26179 10.0861 8.26089C10.0864 8.25999 10.0867 8.25909 10.087 8.25818C10.0873 8.25727 10.0876 8.25635 10.0879 8.25543C10.0882 8.25451 10.0885 8.25358 10.0888 8.25265C10.0891 8.25171 10.0894 8.25077 10.0897 8.24983C10.09 8.24889 10.0904 8.24794 10.0907 8.24698C10.091 8.24603 10.0913 8.24507 10.0916 8.2441L8.19223 7.61776Z" fill="#656565" mask="url(#path-1-outside-1_2604_7615)"/>
</svg>
