<svg width="42" height="38" viewBox="0 0 42 38" fill="none" xmlns="http://www.w3.org/2000/svg">
<rect width="42" height="38" rx="3" fill="#FCFCFC"/>
<rect x="0.25" y="0.25" width="41.5" height="37.5" rx="2.75" stroke="#242525" stroke-opacity="0.2" stroke-width="0.5"/>
<path d="M25.5278 20.2701C24.2556 18.7584 22.6474 17.9258 20.9995 17.9258C19.3517 17.9258 17.7435 18.7584 16.4713 20.2701C15.3277 21.629 14.645 23.3416 14.645 24.8512C14.645 25.5846 14.8728 26.1432 15.3221 26.5116C15.7655 26.8752 16.3509 26.9982 17.004 26.9982C17.699 26.9982 18.4707 26.8589 19.2289 26.722C19.8914 26.6024 20.5172 26.4894 20.9996 26.4894C21.4159 26.4894 22.0029 26.5966 22.6242 26.7101C24.0763 26.9755 25.7222 27.2761 26.673 26.4982C27.1249 26.1283 27.3541 25.5742 27.3541 24.8512C27.3542 23.3416 26.6714 21.629 25.5278 20.2701Z" fill="#F8B84E"/>
<path d="M25.6587 12.0628C25.1932 11.3874 24.5266 11 23.8298 11C23.1331 11 22.4665 11.3874 22.001 12.0628C21.5734 12.6833 21.3379 13.4981 21.3379 14.3573C21.3379 15.2164 21.5734 16.0312 22.001 16.6517C22.4665 17.3271 23.1331 17.7145 23.8298 17.7145C24.5266 17.7145 25.1932 17.3271 25.6587 16.6517C26.0863 16.0312 26.3218 15.2164 26.3218 14.3573C26.3218 13.4981 26.0863 12.6833 25.6587 12.0628Z" fill="#F8B84E"/>
<path d="M19.9995 12.0628C19.534 11.3874 18.8674 11 18.1707 11C17.4739 11 16.8073 11.3874 16.3418 12.0628C15.9142 12.6833 15.6787 13.4981 15.6787 14.3573C15.6787 15.2164 15.9142 16.0312 16.3418 16.6517C16.8074 17.3272 17.4739 17.7146 18.1707 17.7146C18.8674 17.7146 19.534 17.3272 19.9995 16.6517C20.4271 16.0312 20.6626 15.2164 20.6626 14.3573C20.6626 13.4981 20.4271 12.6833 19.9995 12.0628Z" fill="#F8B84E"/>
<path d="M30.3445 17.3346C30.1569 16.7063 29.7546 16.2498 29.212 16.0492C28.7753 15.8878 28.2823 15.9152 27.8239 16.1263C27.1922 16.4172 26.6758 17.018 26.4073 17.7745C26.1879 18.3927 26.1605 19.0461 26.3303 19.6145C26.5179 20.2427 26.9202 20.6992 27.4629 20.8998C27.6507 20.9693 27.8488 21.0038 28.0502 21.0038C28.3171 21.0038 28.5897 20.9431 28.851 20.8227C29.4827 20.5318 29.9991 19.9311 30.2676 19.1746V19.1746C30.487 18.5564 30.5143 17.9029 30.3445 17.3346Z" fill="#F8B84E"/>
<path d="M15.5928 17.7745C15.3242 17.0179 14.8079 16.4172 14.1762 16.1263C13.7177 15.9152 13.2247 15.8878 12.7881 16.0492C12.2454 16.2498 11.8431 16.7063 11.6555 17.3345C11.4857 17.9029 11.5131 18.5564 11.7325 19.1745V19.1746C12.0011 19.9311 12.5174 20.5318 13.1491 20.8227C13.4104 20.9431 13.683 21.0037 13.9499 21.0037C14.1512 21.0037 14.3494 20.9692 14.5372 20.8998C15.08 20.6992 15.4822 20.2427 15.6698 19.6145C15.8395 19.0462 15.8122 18.3927 15.5928 17.7745Z" fill="#F8B84E"/>
</svg>
