<svg width="13" height="12" viewBox="0 0 13 12" fill="none" xmlns="http://www.w3.org/2000/svg">
<path d="M5.71469 8.06429C5.8344 8.06405 5.94993 8.02026 6.03972 7.94107L6.04001 7.94081L9.57572 4.79796L9.65009 4.73185L9.58436 4.65715L9.06579 4.06787L8.99954 3.99259L8.92445 4.05904L5.71888 6.89562L4.10005 5.25792L4.02934 5.18638L3.95822 5.25751L3.40036 5.81536L3.32965 5.88607L3.40036 5.95678L5.36465 7.92107L5.36494 7.92136C5.41099 7.96703 5.46561 8.00317 5.52565 8.0277C5.58565 8.05221 5.64988 8.06464 5.71469 8.06429ZM5.71469 8.06429C5.7146 8.06429 5.71452 8.06429 5.71443 8.06429L5.71429 7.96429L5.71487 8.06429C5.71481 8.06429 5.71475 8.06429 5.71469 8.06429ZM3.38881 10.6562C4.30972 11.2716 5.39243 11.6 6.5 11.6C7.98521 11.6 9.40959 11.01 10.4598 9.9598C11.51 8.90959 12.1 7.48521 12.1 6C12.1 4.89243 11.7716 3.80972 11.1562 2.88881C10.5409 1.96789 9.6663 1.25013 8.64303 0.826277C7.61976 0.402426 6.49379 0.291528 5.4075 0.507605C4.3212 0.723682 3.32338 1.25703 2.5402 2.0402C1.75703 2.82338 1.22368 3.8212 1.0076 4.9075C0.791528 5.99379 0.902426 7.11976 1.32628 8.14303C1.75013 9.1663 2.46789 10.0409 3.38881 10.6562ZM3.93644 2.16336C4.69526 1.65634 5.58738 1.38572 6.5 1.38572C7.72379 1.38572 8.89745 1.87186 9.76279 2.73721C10.6281 3.60256 11.1143 4.77622 11.1143 6C11.1143 6.91262 10.8437 7.80475 10.3366 8.56356C9.82961 9.32238 9.10896 9.9138 8.26581 10.263C7.42266 10.6123 6.49488 10.7037 5.5998 10.5256C4.70472 10.3476 3.88253 9.90811 3.23721 9.26279C2.59189 8.61747 2.15242 7.79529 1.97438 6.9002C1.79634 6.00512 1.88771 5.07734 2.23696 4.23419C2.5862 3.39104 3.17763 2.67039 3.93644 2.16336Z" fill="#3C9672" stroke="#4FB68D" stroke-width="0.2"/>
</svg>
