<svg width="173" height="101" viewBox="0 0 173 101" fill="none" xmlns="http://www.w3.org/2000/svg">
<path opacity="0.1" fill-rule="evenodd" clip-rule="evenodd" d="M121.285 21.4372L96.9371 53.9716C96.312 54.8078 95.6125 55.5444 94.8562 56.1813C96.3955 71.6185 109.453 83.7061 125.29 83.7061C142.159 83.7061 155.875 69.9907 155.875 53.121C155.875 48.5846 159.561 44.8988 164.097 44.8988C168.633 44.8988 172.319 48.5846 172.319 53.121C172.284 79.028 151.197 100.115 125.254 100.115C109.181 100.115 94.9635 91.9985 86.4856 79.65C77.996 91.9985 63.7699 100.115 47.675 100.115C21.768 100.115 0.680908 79.028 0.680908 53.121C0.680908 48.5846 4.36675 44.8988 8.90313 44.8988C13.4395 44.8988 17.1253 48.5846 17.1253 53.121C17.1253 69.9907 30.8408 83.7061 47.7105 83.7061C63.5194 83.7061 76.5583 71.6613 78.1356 56.2633C77.3415 55.6079 76.6084 54.8439 75.9563 53.9716L51.6087 21.4372C45.1585 12.7897 51.3252 0.527283 62.0991 0.527283H110.794C121.604 0.527283 127.77 12.7897 121.285 21.4372Z" fill="#3F6254"/>
</svg>
