<svg width="15" height="12" viewBox="0 0 15 12" fill="none" xmlns="http://www.w3.org/2000/svg">
<path d="M2.18445 3.70636V5.08171C2.18445 5.2033 2.23528 5.31991 2.32576 5.40588C2.41624 5.49186 2.53896 5.54016 2.66692 5.54016C2.79488 5.54016 2.91759 5.49186 3.00807 5.40588C3.09855 5.31991 3.14938 5.2033 3.14938 5.08171V3.70636C3.15157 3.68349 3.15157 3.66047 3.14938 3.6376C3.5394 3.53096 3.87577 3.29406 4.09658 2.9705C4.31739 2.64693 4.40777 2.25846 4.35111 1.8766C4.29445 1.49473 4.09454 1.14516 3.78819 0.892225C3.48184 0.639287 3.08965 0.5 2.6838 0.5C2.27796 0.5 1.88577 0.639287 1.57942 0.892225C1.27306 1.14516 1.07316 1.49473 1.0165 1.8766C0.959833 2.25846 1.05022 2.64693 1.27103 2.9705C1.49184 3.29406 1.82821 3.53096 2.21823 3.6376C2.2045 3.65935 2.19318 3.68239 2.18445 3.70636ZM1.94322 2.10179C1.94322 1.91941 2.01947 1.7445 2.15519 1.61553C2.29091 1.48657 2.47498 1.41412 2.66692 1.41412C2.85885 1.41412 3.04293 1.48657 3.17865 1.61553C3.31437 1.7445 3.39061 1.91941 3.39061 2.10179C3.39061 2.28478 3.31411 2.46028 3.17794 2.58967C3.04177 2.71906 2.85708 2.79176 2.66451 2.79176C2.47193 2.79176 2.28724 2.71906 2.15107 2.58967C2.0149 2.46028 1.9384 2.28478 1.9384 2.10179H1.94322ZM14 6.22783C13.9994 5.93128 13.9121 5.64072 13.7479 5.38857C13.5836 5.13643 13.3488 4.93262 13.0697 4.79991C12.7906 4.6672 12.4782 4.6108 12.1674 4.63701C11.8565 4.66323 11.5594 4.77102 11.3093 4.94835C11.0592 5.12569 10.8658 5.36559 10.7508 5.64129C10.6359 5.91698 10.6038 6.21761 10.6582 6.50962C10.7126 6.80163 10.8513 7.07353 11.0589 7.29497C11.2665 7.51641 11.5347 7.67867 11.8337 7.76364C11.8315 7.78651 11.8315 7.80953 11.8337 7.83241V9.20775C11.8337 9.32934 11.8846 9.44595 11.975 9.53193C12.0655 9.6179 12.1882 9.6662 12.3162 9.6662C12.4442 9.6662 12.5669 9.6179 12.6574 9.53193C12.7478 9.44595 12.7987 9.32934 12.7987 9.20775V7.83241C12.8008 7.80953 12.8008 7.78651 12.7987 7.76364C13.1455 7.66354 13.4494 7.46032 13.6657 7.18386C13.8819 6.9074 13.9991 6.5723 14 6.22783ZM12.3162 6.91551C12.1243 6.91551 11.9402 6.84306 11.8045 6.71409C11.6688 6.58513 11.5925 6.41022 11.5925 6.22783C11.5925 6.04545 11.6688 5.87054 11.8045 5.74157C11.9402 5.61261 12.1243 5.54016 12.3162 5.54016C12.5081 5.54016 12.6922 5.61261 12.8279 5.74157C12.9636 5.87054 13.0399 6.04545 13.0399 6.22783C13.0399 6.41022 12.9636 6.58513 12.8279 6.71409C12.6922 6.84306 12.5081 6.91551 12.3162 6.91551ZM12.3162 10.5831H9.42142C9.1655 10.5831 8.92007 10.4865 8.73911 10.3145C8.55815 10.1426 8.45649 9.90938 8.45649 9.6662V8.29086C8.45649 7.8045 8.25316 7.33807 7.89124 6.99417C7.52933 6.65026 7.03846 6.45706 6.52663 6.45706H2.66692C2.53896 6.45706 2.41624 6.50536 2.32576 6.59133C2.23528 6.67731 2.18445 6.79392 2.18445 6.91551C2.18445 7.0371 2.23528 7.15371 2.32576 7.23968C2.41624 7.32566 2.53896 7.37396 2.66692 7.37396H6.52663C6.78255 7.37396 7.02798 7.47056 7.20894 7.64251C7.3899 7.81446 7.49156 8.04768 7.49156 8.29086V9.6662C7.49156 10.1526 7.69488 10.619 8.0568 10.9629C8.41872 11.3068 8.90959 11.5 9.42142 11.5H12.3162C12.4442 11.5 12.5669 11.4517 12.6574 11.3657C12.7478 11.2797 12.7987 11.1631 12.7987 11.0416C12.7987 10.92 12.7478 10.8034 12.6574 10.7174C12.5669 10.6314 12.4442 10.5831 12.3162 10.5831Z" fill="#242525" fill-opacity="0.7"/>
<path d="M2.13747 3.68926L2.13445 3.69755V3.70636V5.08171C2.13445 5.21741 2.19121 5.347 2.29132 5.44213C2.39135 5.53718 2.5265 5.59016 2.66692 5.59016C2.80734 5.59016 2.94248 5.53718 3.04251 5.44213C3.14263 5.347 3.19938 5.21741 3.19938 5.08171V3.70867C3.20039 3.69742 3.20093 3.68614 3.20101 3.67486C3.58576 3.56043 3.91745 3.32169 4.13788 2.99868C4.36566 2.66489 4.45911 2.26377 4.40057 1.86926C4.34203 1.47478 4.1356 1.11422 3.82002 0.853669C3.5045 0.593161 3.10099 0.45 2.6838 0.45C2.26661 0.45 1.86311 0.593161 1.54758 0.853669C1.232 1.11422 1.02557 1.47478 0.967038 1.86926C0.908498 2.26377 1.00195 2.66489 1.22973 2.99868C1.44615 3.31582 1.76984 3.55173 2.14568 3.6685C2.14275 3.67534 2.14002 3.68227 2.13747 3.68926ZM1.99046 2.15179H1.99322V2.10179C1.99322 1.93352 2.06355 1.77159 2.18963 1.65178C2.3158 1.53189 2.48744 1.46412 2.66692 1.46412C2.84639 1.46412 3.01804 1.53189 3.14421 1.65178C3.27029 1.77159 3.34061 1.93352 3.34061 2.10179C3.34061 2.27067 3.27004 2.43319 3.1435 2.55343C3.01688 2.67374 2.84462 2.74176 2.66451 2.74176C2.48439 2.74176 2.31213 2.67374 2.18551 2.55343C2.07152 2.44511 2.00294 2.30248 1.99046 2.15179ZM14.05 6.22796V6.22774C14.0494 5.92138 13.9592 5.62139 13.7898 5.36128C13.6203 5.1012 13.3784 4.89131 13.0912 4.75476C12.804 4.61821 12.4828 4.56024 12.1632 4.58719C11.8436 4.61414 11.5379 4.72497 11.2804 4.90756C11.0228 5.09017 10.8234 5.33746 10.7047 5.62204C10.586 5.90665 10.5528 6.21715 10.609 6.51878C10.6652 6.82039 10.8085 7.10092 11.0224 7.32916C11.2275 7.54794 11.4898 7.71042 11.782 7.80047C11.7821 7.81192 11.7827 7.82337 11.7837 7.83479V9.20775C11.7837 9.34345 11.8405 9.47304 11.9406 9.56817C12.0406 9.66322 12.1758 9.7162 12.3162 9.7162C12.4566 9.7162 12.5918 9.66322 12.6918 9.56817C12.7919 9.47304 12.8487 9.34345 12.8487 9.20775V7.8347C12.8497 7.82327 12.8502 7.8118 12.8503 7.80033C13.1913 7.69383 13.49 7.48955 13.7051 7.21466C13.928 6.92962 14.0491 6.58377 14.05 6.22796ZM12.3162 6.86551C12.1367 6.86551 11.9651 6.79774 11.8389 6.67785C11.7128 6.55804 11.6425 6.39611 11.6425 6.22783C11.6425 6.05956 11.7128 5.89763 11.8389 5.77782C11.9651 5.65793 12.1367 5.59016 12.3162 5.59016C12.4957 5.59016 12.6673 5.65793 12.7935 5.77782C12.9196 5.89763 12.9899 6.05956 12.9899 6.22783C12.9899 6.39611 12.9196 6.55804 12.7935 6.67785C12.6673 6.79774 12.4957 6.86551 12.3162 6.86551ZM12.3162 10.5331H9.42142C9.17796 10.5331 8.94496 10.4412 8.77355 10.2783C8.60223 10.1155 8.50649 9.89527 8.50649 9.6662V8.29086C8.50649 7.79039 8.29724 7.31098 7.92569 6.95792C7.55422 6.60494 7.05092 6.40706 6.52663 6.40706H2.66692C2.5265 6.40706 2.39135 6.46004 2.29132 6.55509C2.19121 6.65022 2.13445 6.77981 2.13445 6.91551C2.13445 7.0512 2.19121 7.18079 2.29132 7.27593C2.39135 7.37098 2.5265 7.42396 2.66692 7.42396H6.52663C6.77008 7.42396 7.00309 7.51588 7.1745 7.67876C7.34582 7.84155 7.44156 8.06179 7.44156 8.29086V9.6662C7.44156 10.1667 7.6508 10.6461 8.02236 10.9991C8.39383 11.3521 8.89712 11.55 9.42142 11.55H12.3162C12.4566 11.55 12.5918 11.497 12.6918 11.402C12.7919 11.3068 12.8487 11.1772 12.8487 11.0416C12.8487 10.9059 12.7919 10.7763 12.6918 10.6811C12.5918 10.5861 12.4566 10.5331 12.3162 10.5331Z" stroke="#242525" stroke-opacity="0.7" stroke-width="0.1"/>
</svg>
