<svg width="18" height="18" viewBox="0 0 18 18" fill="none" xmlns="http://www.w3.org/2000/svg">
<mask id="path-1-inside-1_3335_4208" fill="white">
<path fill-rule="evenodd" clip-rule="evenodd" d="M17.6765 15.5946C17.1209 17.2829 14.9441 18.1253 13.3889 17.9849C11.2648 17.7929 8.95363 16.6662 7.19921 15.4254C4.62039 13.6015 2.20477 10.7804 0.797162 7.78647C-0.197646 5.67095 -0.420847 3.06944 1.05876 1.14111C1.60597 0.428334 2.19877 0.0479476 3.08678 0.00354923C4.32039 -0.0564486 4.49319 0.649126 4.9168 1.74829C5.2324 2.57026 5.6536 3.40903 5.8888 4.261C6.32921 5.85094 4.78959 5.91694 4.59519 7.21649C4.47519 8.03606 5.4676 9.13522 5.9164 9.7196C6.78147 10.8577 7.84099 11.8339 9.04603 12.6031C9.73003 13.0339 10.8316 13.8103 11.614 13.3819C12.8189 12.7219 12.7061 10.6904 14.3897 11.3779C15.2621 11.7331 16.1069 12.2455 16.9397 12.6943C18.2273 13.3867 18.1673 14.1042 17.6765 15.5946C18.0437 14.481 17.3093 16.7082 17.6765 15.5946Z"/>
</mask>
<path fill-rule="evenodd" clip-rule="evenodd" d="M17.6765 15.5946C17.1209 17.2829 14.9441 18.1253 13.3889 17.9849C11.2648 17.7929 8.95363 16.6662 7.19921 15.4254C4.62039 13.6015 2.20477 10.7804 0.797162 7.78647C-0.197646 5.67095 -0.420847 3.06944 1.05876 1.14111C1.60597 0.428334 2.19877 0.0479476 3.08678 0.00354923C4.32039 -0.0564486 4.49319 0.649126 4.9168 1.74829C5.2324 2.57026 5.6536 3.40903 5.8888 4.261C6.32921 5.85094 4.78959 5.91694 4.59519 7.21649C4.47519 8.03606 5.4676 9.13522 5.9164 9.7196C6.78147 10.8577 7.84099 11.8339 9.04603 12.6031C9.73003 13.0339 10.8316 13.8103 11.614 13.3819C12.8189 12.7219 12.7061 10.6904 14.3897 11.3779C15.2621 11.7331 16.1069 12.2455 16.9397 12.6943C18.2273 13.3867 18.1673 14.1042 17.6765 15.5946C18.0437 14.481 17.3093 16.7082 17.6765 15.5946Z" fill="#426A5A"/>
<path d="M13.3889 17.9849L13.2988 18.9808L13.299 18.9809L13.3889 17.9849ZM7.19921 15.4254L6.62177 16.2418L6.6218 16.2419L7.19921 15.4254ZM0.797162 7.78647L1.70213 7.36099L1.7021 7.36093L0.797162 7.78647ZM1.05876 1.14111L0.265558 0.532156L0.265401 0.53236L1.05876 1.14111ZM3.08678 0.00354923L3.0382 -0.995271L3.03685 -0.995203L3.08678 0.00354923ZM4.9168 1.74829L5.85035 1.38984L5.8499 1.38868L4.9168 1.74829ZM5.8888 4.261L4.92486 4.52711L4.92509 4.52794L5.8888 4.261ZM4.59519 7.21649L3.60619 7.06855L3.60574 7.07162L4.59519 7.21649ZM5.9164 9.7196L6.71254 9.11447L6.7095 9.11051L5.9164 9.7196ZM9.04603 12.6031L8.50798 13.446L8.51311 13.4493L9.04603 12.6031ZM11.614 13.3819L12.0943 14.259L12.0945 14.2589L11.614 13.3819ZM14.3897 11.3779L14.0116 12.3037L14.0126 12.3041L14.3897 11.3779ZM16.9397 12.6943L16.4653 13.5746L16.4661 13.575L16.9397 12.6943ZM17.6765 15.5946L18.6262 15.9078L18.6263 15.9074L17.6765 15.5946ZM17.6765 15.5946L16.7267 15.2818L18.6262 15.9078L17.6765 15.5946ZM16.7266 15.282C16.5574 15.7961 16.1137 16.2544 15.4603 16.5811C14.807 16.9078 14.0591 17.0413 13.4788 16.989L13.299 18.9809C14.2739 19.0689 15.392 18.8514 16.3548 18.3699C17.3175 17.8885 18.24 17.0814 18.6264 15.9072L16.7266 15.282ZM13.4789 16.989C11.5996 16.8191 9.45731 15.7976 7.77663 14.6089L6.6218 16.2419C8.44995 17.5348 10.9301 18.7667 13.2988 18.9808L13.4789 16.989ZM7.77666 14.609C5.3355 12.8824 3.03441 10.1947 1.70213 7.36099L-0.107805 8.21195C1.37514 11.3661 3.90529 14.3205 6.62177 16.2418L7.77666 14.609ZM1.7021 7.36093C0.792144 5.42585 0.689905 3.26454 1.85213 1.74986L0.265401 0.53236C-1.5316 2.87434 -1.18744 5.91605 -0.107777 8.21201L1.7021 7.36093ZM1.85197 1.75006C2.07286 1.46234 2.26456 1.29221 2.44616 1.18702C2.62012 1.08627 2.83207 1.01753 3.13672 1.0023L3.03685 -0.995203C2.45349 -0.966037 1.92503 -0.822383 1.44378 -0.543648C0.97018 -0.269346 0.591877 0.1071 0.265558 0.532156L1.85197 1.75006ZM3.13536 1.00237C3.352 0.991832 3.44714 1.01916 3.47715 1.0306C3.49341 1.03681 3.50468 1.04156 3.53128 1.0741C3.57044 1.12201 3.62691 1.21347 3.70777 1.40045C3.79219 1.59566 3.86637 1.80346 3.98369 2.10789L5.8499 1.38868C5.75542 1.14353 5.64915 0.850956 5.54347 0.606599C5.43424 0.354018 5.29099 0.0667453 5.0798 -0.191628C4.85605 -0.465381 4.56634 -0.694473 4.19001 -0.838037C3.82743 -0.97636 3.43837 -1.01473 3.0382 -0.99527L3.13536 1.00237ZM3.98324 2.10673C4.14711 2.53351 4.34825 2.98922 4.50956 3.37725C4.67957 3.78624 4.82426 4.16269 4.92486 4.52711L6.85274 3.99488C6.71815 3.50733 6.53463 3.03842 6.35634 2.60954C6.16934 2.1597 6.00208 1.78503 5.85035 1.38984L3.98324 2.10673ZM4.92509 4.52794C4.99211 4.76988 4.96206 4.86249 4.95352 4.88748C4.93782 4.93344 4.89863 5.00574 4.75058 5.16363C4.51741 5.41229 3.7617 6.02901 3.6062 7.06855L5.58419 7.36444C5.62308 7.10442 5.73438 7.03837 6.20952 6.53166C6.41562 6.31185 6.69091 5.98832 6.8461 5.53412C7.00845 5.05896 7.0057 4.54709 6.85252 3.99406L4.92509 4.52794ZM3.60574 7.07162C3.54317 7.49897 3.63274 7.8975 3.74873 8.21465C3.86644 8.53652 4.03468 8.83755 4.20109 9.09665C4.52016 9.59344 4.94473 10.0962 5.12331 10.3287L6.7095 9.11051C6.43927 8.75865 6.14323 8.41961 5.8839 8.01584C5.76111 7.82466 5.67569 7.6607 5.62706 7.52771C5.57669 7.39 5.58721 7.3438 5.58464 7.36137L3.60574 7.07162ZM5.12027 10.3247C6.05668 11.5567 7.20358 12.6134 8.50799 13.446L9.58407 11.7602C8.4784 11.0544 7.50626 10.1587 6.71253 9.11448L5.12027 10.3247ZM8.51311 13.4493C8.81185 13.6374 9.34906 14.0007 9.90294 14.2354C10.4325 14.4598 11.2836 14.7029 12.0943 14.259L11.1338 12.5047C11.1621 12.4892 11.0712 12.5583 10.6833 12.3939C10.3198 12.2399 9.96421 11.9996 9.57894 11.7569L8.51311 13.4493ZM12.0945 14.2589C12.5939 13.9853 12.9202 13.5885 13.1464 13.2556C13.2595 13.0892 13.3586 12.9216 13.4399 12.7833C13.5269 12.6353 13.5913 12.5248 13.657 12.4253C13.7966 12.2138 13.8422 12.2133 13.8061 12.2286C13.7286 12.2615 13.7472 12.1958 14.0116 12.3037L14.7677 10.4522C14.1903 10.2163 13.5917 10.1467 13.0242 10.3878C12.4981 10.6112 12.1809 11.0309 11.9876 11.3238C11.8868 11.4766 11.7924 11.6393 11.7157 11.7697C11.6334 11.9097 11.5642 12.0256 11.4921 12.1317C11.348 12.3438 11.2366 12.4484 11.1336 12.5048L12.0945 14.2589ZM14.0126 12.3041C14.8185 12.6322 15.5696 13.092 16.4653 13.5746L17.4141 11.814C16.6441 11.3991 15.7057 10.834 14.7668 10.4518L14.0126 12.3041ZM16.4661 13.575C16.9833 13.8532 16.9869 14.0014 16.9921 14.0291C17.0223 14.191 16.9834 14.5022 16.7267 15.2818L18.6263 15.9074C18.8604 15.1966 19.0969 14.4039 18.9579 13.6613C18.7939 12.7846 18.1837 12.2278 17.4133 11.8136L16.4661 13.575ZM16.7268 15.2814C16.7226 15.2941 16.6976 15.3699 16.6955 15.3762C16.694 15.3808 16.6935 15.3824 16.6921 15.3868C16.6915 15.3885 16.6909 15.3902 16.6904 15.3919C16.6898 15.3936 16.6892 15.3953 16.6887 15.397C16.6734 15.4434 16.6974 15.3707 16.6822 15.4167C16.6724 15.4464 16.6796 15.4245 16.6703 15.4527C16.6697 15.4544 16.66 15.4841 16.6599 15.4844C16.6447 15.5303 16.6654 15.4675 16.6508 15.512C16.6286 15.5793 16.6569 15.4933 16.6364 15.5555C16.6167 15.6152 16.6451 15.5292 16.627 15.5842C16.6174 15.613 16.633 15.5657 16.6239 15.5935C16.6234 15.5951 16.6221 15.5989 16.6219 15.5995C16.6205 15.6036 16.622 15.5994 16.6209 15.6025C16.6208 15.6028 16.6208 15.6028 16.6208 15.6029C17.8837 14.9664 18.5202 16.2292 18.5202 16.2292C18.5202 16.2292 18.5202 16.2292 18.5202 16.2291C18.523 16.2207 18.5175 16.2375 18.5203 16.2289C18.5208 16.2275 18.5213 16.2258 18.5229 16.221C18.5395 16.1707 18.5752 16.0624 18.6262 15.9078C18.6381 15.8717 18.6487 15.8394 18.6601 15.805C18.6659 15.7873 18.6865 15.7248 18.6907 15.712C18.6957 15.697 18.7127 15.6455 18.7149 15.6386C18.7332 15.5833 18.715 15.6385 18.7295 15.5946C18.731 15.5899 18.7299 15.5931 18.7312 15.5893C18.7322 15.5863 18.7314 15.5888 18.7321 15.5866C18.7321 15.5866 18.7321 15.5865 18.7321 15.5865C18.7322 15.5864 18.7322 15.5864 18.7322 15.5864C18.7322 15.5864 18.7322 15.5863 18.7322 15.5863C18.7322 15.5863 18.0957 14.3234 16.8328 14.96C16.8328 14.96 16.8328 14.9601 16.8327 14.9604C16.831 14.9655 16.8341 14.9561 16.8323 14.9615C16.832 14.9623 16.8323 14.9615 16.832 14.9623C16.832 14.9625 16.8319 14.9626 16.8319 14.9628C16.8318 14.963 16.8318 14.9632 16.8317 14.9633C16.8183 15.0039 16.8364 14.9489 16.8172 15.0074C16.7933 15.0797 16.7808 15.1177 16.7268 15.2814L18.6262 15.9078C18.6269 15.9056 18.6276 15.9034 18.6283 15.9013C18.629 15.8991 18.6297 15.897 18.6304 15.8949C18.6311 15.8927 18.6318 15.8906 18.6325 15.8885C18.6332 15.8864 18.6339 15.8843 18.6346 15.8823C18.6353 15.8802 18.636 15.8781 18.6366 15.8761C18.6373 15.874 18.638 15.872 18.6387 15.87C18.6393 15.868 18.64 15.8659 18.6406 15.8639C18.6413 15.8619 18.642 15.86 18.6426 15.858C18.6433 15.856 18.6439 15.854 18.6445 15.8521C18.6452 15.8502 18.6458 15.8482 18.6465 15.8463C18.6478 15.8423 18.6489 15.8388 18.6502 15.8349C18.6508 15.833 18.6515 15.8311 18.6521 15.8293C18.6527 15.8274 18.6533 15.8256 18.6539 15.8238C18.6545 15.8219 18.6551 15.8201 18.6557 15.8183C18.6563 15.8165 18.6569 15.8147 18.6575 15.813C18.658 15.8112 18.6586 15.8094 18.6592 15.8076C18.6598 15.8059 18.6604 15.8041 18.6609 15.8024C18.6615 15.8007 18.6621 15.799 18.6626 15.7973C18.6632 15.7955 18.6638 15.7938 18.6643 15.7922C18.6649 15.7905 18.6654 15.7888 18.666 15.7871C18.6665 15.7855 18.6671 15.7838 18.6676 15.7822C18.6681 15.7806 18.6687 15.7789 18.6692 15.7773C18.6697 15.7757 18.6703 15.7741 18.6708 15.7725C18.6713 15.7709 18.6718 15.7693 18.6724 15.7678C18.6729 15.7662 18.6734 15.7646 18.6739 15.7631C18.6744 15.7615 18.6749 15.76 18.6754 15.7585C18.6759 15.757 18.6764 15.7555 18.6769 15.7539C18.6774 15.7524 18.6779 15.751 18.6784 15.7495C18.6789 15.748 18.6794 15.7465 18.6798 15.7451C18.6803 15.7436 18.6808 15.7422 18.6813 15.7408C18.6817 15.7393 18.6822 15.7379 18.6827 15.7365C18.6838 15.7329 18.6843 15.7316 18.6854 15.7282C18.6859 15.7268 18.6863 15.7254 18.6868 15.7241C18.6872 15.7228 18.6876 15.7214 18.6881 15.7201C18.6885 15.7188 18.6889 15.7175 18.6894 15.7162C18.6898 15.7149 18.6902 15.7136 18.6907 15.7123C18.6911 15.711 18.6915 15.7098 18.6919 15.7085C18.6923 15.7072 18.6927 15.706 18.6931 15.7048C18.6947 15.7002 18.6965 15.6947 18.6979 15.6904C18.6982 15.6893 18.6986 15.6882 18.699 15.687C18.6994 15.6859 18.6997 15.6848 18.7001 15.6837C18.7005 15.6826 18.7008 15.6815 18.7012 15.6804C18.7015 15.6793 18.7019 15.6782 18.7022 15.6772C18.7026 15.6761 18.7029 15.675 18.7033 15.674C18.7036 15.6729 18.704 15.6719 18.7043 15.6709C18.7052 15.6681 18.7054 15.6676 18.7063 15.6649C18.7066 15.6639 18.7069 15.6629 18.7073 15.6619C18.7076 15.661 18.7079 15.66 18.7082 15.6591C18.7085 15.6581 18.7088 15.6572 18.7091 15.6563C18.7094 15.6553 18.7097 15.6544 18.71 15.6535C18.7103 15.6526 18.7106 15.6517 18.7109 15.6508C18.7112 15.65 18.7115 15.6491 18.7118 15.6482C18.7121 15.6474 18.7123 15.6465 18.7126 15.6457C18.7129 15.6448 18.7132 15.644 18.7134 15.6432C18.7137 15.6423 18.714 15.6415 18.7143 15.6407C18.7145 15.6399 18.7148 15.6391 18.715 15.6383C18.7153 15.6375 18.7156 15.6368 18.7158 15.636C18.7161 15.6352 18.7163 15.6345 18.7166 15.6337C18.7168 15.633 18.7171 15.6322 18.7173 15.6315C18.7175 15.6308 18.7178 15.6301 18.718 15.6294C18.7182 15.6286 18.7185 15.6279 18.7187 15.6273C18.7189 15.6266 18.7191 15.6259 18.7194 15.6252C18.7196 15.6245 18.7198 15.6239 18.72 15.6232C18.7202 15.6226 18.7205 15.6219 18.7207 15.6213C18.7209 15.6207 18.7211 15.62 18.7213 15.6194C18.7215 15.6188 18.7217 15.6182 18.7219 15.6176C18.7221 15.617 18.7223 15.6164 18.7225 15.6158C18.7227 15.6152 18.7228 15.6147 18.723 15.6141C18.7232 15.6135 18.7234 15.613 18.7236 15.6125C18.7238 15.6119 18.7239 15.6114 18.7241 15.6109C18.7243 15.6103 18.7244 15.6098 18.7246 15.6093C18.7248 15.6088 18.7249 15.6083 18.7251 15.6078C18.7252 15.6074 18.7259 15.6053 18.726 15.605C18.7265 15.6036 18.7265 15.6036 18.7269 15.6024C18.727 15.6019 18.7272 15.6015 18.7273 15.6011C18.7274 15.6007 18.7276 15.6003 18.7277 15.5999C18.7281 15.5988 18.7288 15.5965 18.7291 15.5957C18.7293 15.595 18.7295 15.5946 18.7297 15.5939C18.7298 15.5936 18.7299 15.5934 18.73 15.5931C18.73 15.5928 18.7301 15.5926 18.7302 15.5923C18.7303 15.5921 18.7304 15.5918 18.7305 15.5916C18.7305 15.5913 18.7306 15.5911 18.7307 15.5909C18.7308 15.5905 18.731 15.59 18.7311 15.5897C18.7313 15.5891 18.7312 15.5892 18.7314 15.5887C18.7315 15.5884 18.7316 15.588 18.7317 15.5878C18.7319 15.5872 18.7319 15.5871 18.7321 15.5867C18.7322 15.5864 18.7322 15.5864 18.7322 15.5863C17.4693 16.2228 16.8328 14.96 16.8328 14.96C16.8328 14.96 16.8328 14.96 16.8328 14.96C16.8328 14.9601 16.8328 14.9601 16.8327 14.9601C16.8327 14.9602 16.8327 14.9602 16.8327 14.9603C16.8324 14.9613 16.8324 14.9611 16.8318 14.963C16.8316 14.9636 16.8317 14.9634 16.8315 14.964C16.8314 14.9642 16.8313 14.9644 16.8313 14.9646C16.8312 14.9649 16.8311 14.9651 16.831 14.9653C16.831 14.9655 16.8309 14.9657 16.8308 14.966C16.8307 14.9662 16.8307 14.9664 16.8306 14.9667C16.8305 14.9669 16.8304 14.9672 16.8303 14.9674C16.8303 14.9677 16.8302 14.968 16.8301 14.9682C16.83 14.9685 16.8299 14.9688 16.8298 14.9691C16.8297 14.9694 16.8296 14.9696 16.8295 14.9699C16.8294 14.9702 16.8293 14.9705 16.8292 14.9709C16.8291 14.9712 16.829 14.9715 16.8289 14.9718C16.8288 14.9721 16.8287 14.9725 16.8286 14.9728C16.8285 14.9731 16.8284 14.9735 16.8282 14.9738C16.8281 14.9742 16.828 14.9745 16.8279 14.9749C16.8278 14.9752 16.8277 14.9756 16.8275 14.976C16.8274 14.9763 16.8273 14.9767 16.8272 14.9771C16.827 14.9775 16.8269 14.9779 16.8268 14.9783C16.8266 14.9786 16.8265 14.979 16.8264 14.9795C16.8262 14.9799 16.8261 14.9803 16.826 14.9807C16.8258 14.9811 16.8257 14.9815 16.8256 14.982C16.8254 14.9824 16.8253 14.9828 16.8251 14.9833C16.825 14.9837 16.8248 14.9842 16.8247 14.9846C16.8245 14.9851 16.8244 14.9855 16.8242 14.986C16.8232 14.989 16.8214 14.9944 16.8202 14.9981C16.8199 14.999 16.8194 15.0006 16.8191 15.0015C16.8189 15.0021 16.8187 15.0026 16.8185 15.0032C16.8183 15.0038 16.8182 15.0044 16.818 15.005C16.8178 15.0056 16.8176 15.0062 16.8174 15.0068C16.8172 15.0074 16.817 15.008 16.8168 15.0086C16.8166 15.0092 16.8164 15.0098 16.8162 15.0104C16.816 15.011 16.8158 15.0117 16.8156 15.0123C16.8153 15.0129 16.8151 15.0135 16.8149 15.0142C16.8147 15.0148 16.8145 15.0155 16.8143 15.0161C16.8141 15.0168 16.8139 15.0174 16.8136 15.0181C16.8134 15.0187 16.8132 15.0194 16.813 15.0201C16.8128 15.0207 16.8125 15.0214 16.8123 15.0221C16.8121 15.0227 16.8119 15.0234 16.8117 15.0241C16.8114 15.0247 16.8105 15.0276 16.8103 15.0283C16.8101 15.029 16.8098 15.0297 16.8096 15.0304C16.8093 15.0311 16.8091 15.0318 16.8089 15.0325C16.8086 15.0332 16.8084 15.034 16.8082 15.0347C16.8079 15.0354 16.8077 15.0362 16.8074 15.0369C16.8071 15.0378 16.8063 15.0404 16.806 15.0414C16.8057 15.0421 16.8055 15.0429 16.8052 15.0436C16.805 15.0444 16.8047 15.0452 16.8045 15.0459C16.8042 15.0467 16.8039 15.0475 16.8037 15.0482C16.8034 15.049 16.8032 15.0498 16.8029 15.0506C16.8027 15.0514 16.8024 15.0522 16.8021 15.0529C16.8019 15.0537 16.8016 15.0545 16.8014 15.0553C16.8011 15.0561 16.8008 15.0569 16.8006 15.0577C16.8003 15.0586 16.8 15.0594 16.7998 15.0602C16.799 15.0625 16.7989 15.0628 16.7981 15.0651C16.7979 15.0659 16.7976 15.0668 16.7973 15.0676C16.797 15.0684 16.7968 15.0693 16.7965 15.0701C16.7962 15.071 16.7959 15.0718 16.7956 15.0727C16.7954 15.0735 16.7951 15.0744 16.7948 15.0752C16.7945 15.0761 16.7942 15.077 16.7939 15.0778C16.7937 15.0787 16.7934 15.0795 16.7931 15.0804C16.7928 15.0813 16.7925 15.0822 16.7922 15.083C16.7919 15.0839 16.7916 15.0848 16.7913 15.0857C16.79 15.0898 16.7892 15.0922 16.7878 15.0964C16.7875 15.0973 16.7872 15.0983 16.7869 15.0992C16.7866 15.1001 16.7863 15.101 16.786 15.1019C16.7857 15.1028 16.7854 15.1038 16.7851 15.1047C16.7848 15.1056 16.7845 15.1065 16.7842 15.1075C16.7839 15.1084 16.7835 15.1093 16.7832 15.1103C16.7829 15.1112 16.7826 15.1122 16.7823 15.1131C16.782 15.114 16.7817 15.115 16.7814 15.1159C16.7811 15.1169 16.7807 15.1178 16.7804 15.1188C16.78 15.12 16.7789 15.1233 16.7785 15.1245C16.7778 15.1269 16.7774 15.128 16.7766 15.1303C16.7714 15.1462 16.7663 15.1617 16.7607 15.1787C16.7603 15.1797 16.76 15.1807 16.7597 15.1818C16.7593 15.1828 16.759 15.1839 16.7586 15.1849C16.7583 15.1859 16.7579 15.187 16.7576 15.188C16.7573 15.1891 16.7569 15.1901 16.7566 15.1912C16.7562 15.1922 16.7559 15.1933 16.7555 15.1943C16.7552 15.1954 16.7548 15.1964 16.7545 15.1975C16.7541 15.1985 16.7538 15.1996 16.7534 15.2006C16.7531 15.2017 16.7527 15.2028 16.7524 15.2038C16.752 15.2049 16.7517 15.2059 16.7513 15.207C16.751 15.2081 16.7506 15.2091 16.7503 15.2102C16.7499 15.2112 16.7496 15.2123 16.7492 15.2134C16.7489 15.2144 16.7485 15.2155 16.7482 15.2166C16.7478 15.2176 16.7475 15.2187 16.7471 15.2198C16.7468 15.2209 16.7464 15.2219 16.7461 15.223C16.7457 15.2241 16.7454 15.2251 16.745 15.2262C16.7447 15.2273 16.7443 15.2284 16.7439 15.2294C16.7436 15.2305 16.7432 15.2316 16.7429 15.2327C16.7425 15.2337 16.7422 15.2348 16.7418 15.2359C16.7415 15.237 16.7411 15.238 16.7407 15.2391C16.7404 15.2402 16.74 15.2413 16.7397 15.2424C16.7393 15.2434 16.739 15.2445 16.7386 15.2456C16.7383 15.2467 16.7379 15.2478 16.7375 15.2489C16.7372 15.2499 16.7368 15.251 16.7365 15.2521C16.7361 15.2532 16.7358 15.2543 16.7354 15.2554C16.735 15.2564 16.7347 15.2575 16.7343 15.2586C16.734 15.2597 16.7336 15.2608 16.7332 15.2619C16.7329 15.2629 16.7325 15.264 16.7322 15.2651C16.7318 15.2662 16.7315 15.2673 16.7311 15.2684C16.7307 15.2695 16.7304 15.2706 16.73 15.2716C16.7297 15.2727 16.7293 15.2738 16.729 15.2749C16.7286 15.276 16.7282 15.2771 16.7279 15.2782C16.7275 15.2793 16.7272 15.2803 16.7268 15.2814C16.7264 15.2825 16.7261 15.2836 16.7257 15.2847C16.7254 15.2858 16.725 15.2869 16.7246 15.288C16.7241 15.2895 16.723 15.2929 16.7225 15.2945C16.7221 15.2956 16.7218 15.2966 16.7214 15.2977C16.7211 15.2988 16.7207 15.2999 16.7203 15.301C16.72 15.3021 16.7196 15.3032 16.7193 15.3042C16.7189 15.3053 16.7186 15.3064 16.7182 15.3075C16.7178 15.3086 16.7175 15.3097 16.7171 15.3108C16.7168 15.3118 16.7164 15.3129 16.7161 15.314C16.7157 15.3151 16.7153 15.3162 16.715 15.3172C16.7146 15.3183 16.7143 15.3194 16.7139 15.3205C16.7136 15.3216 16.7132 15.3226 16.7129 15.3237C16.7125 15.3248 16.7121 15.3259 16.7118 15.327C16.7114 15.328 16.7111 15.3291 16.7107 15.3302C16.7104 15.3313 16.71 15.3323 16.7097 15.3334C16.7093 15.3345 16.7089 15.3356 16.7086 15.3366C16.7082 15.3377 16.7079 15.3388 16.7075 15.3399C16.7067 15.3424 16.7062 15.3438 16.7054 15.3463C16.7051 15.3473 16.7047 15.3484 16.7044 15.3495C16.704 15.3505 16.7037 15.3516 16.7033 15.3527C16.703 15.3537 16.7026 15.3548 16.7023 15.3559C16.7019 15.3569 16.7016 15.358 16.7012 15.359C16.7009 15.3601 16.7005 15.3612 16.7002 15.3622C16.6998 15.3633 16.6995 15.3643 16.6991 15.3654C16.6988 15.3664 16.6984 15.3675 16.6981 15.3685C16.6977 15.3696 16.6974 15.3706 16.697 15.3717C16.6967 15.3727 16.6963 15.3738 16.696 15.3748C16.6957 15.3759 16.6953 15.3769 16.695 15.378C16.6946 15.379 16.6943 15.38 16.6939 15.3811C16.6936 15.3821 16.6933 15.3832 16.6929 15.3842C16.6926 15.3852 16.6922 15.3863 16.6919 15.3873C16.6915 15.3883 16.6912 15.3894 16.6909 15.3904C16.6901 15.3929 16.6896 15.3941 16.6888 15.3965C16.6885 15.3976 16.6882 15.3986 16.6878 15.3996C16.6875 15.4006 16.6872 15.4016 16.6868 15.4027C16.6865 15.4037 16.6861 15.4047 16.6858 15.4057C16.6855 15.4067 16.6852 15.4077 16.6848 15.4087C16.6845 15.4097 16.6842 15.4107 16.6838 15.4118C16.6835 15.4128 16.6832 15.4138 16.6828 15.4148C16.6825 15.4158 16.6822 15.4168 16.6818 15.4178C16.6815 15.4187 16.6812 15.4197 16.6809 15.4207C16.6805 15.4217 16.6802 15.4227 16.6799 15.4237C16.6796 15.4247 16.6792 15.4257 16.6789 15.4267C16.6786 15.4276 16.6783 15.4286 16.6779 15.4296C16.6776 15.4306 16.6773 15.4315 16.677 15.4325C16.6767 15.4335 16.6763 15.4345 16.676 15.4354C16.6757 15.4364 16.6754 15.4374 16.6751 15.4383C16.6745 15.4399 16.6737 15.4425 16.6732 15.4441C16.6727 15.4456 16.6718 15.4483 16.6713 15.4498C16.671 15.4507 16.6707 15.4516 16.6704 15.4526C16.6701 15.4535 16.6697 15.4544 16.6694 15.4554C16.6691 15.4563 16.6688 15.4572 16.6685 15.4582C16.6682 15.4591 16.6679 15.46 16.6676 15.4609C16.6673 15.4619 16.667 15.4628 16.6667 15.4637C16.6664 15.4646 16.6661 15.4655 16.6658 15.4664C16.6655 15.4673 16.6652 15.4682 16.6649 15.4691C16.6646 15.47 16.6643 15.4709 16.664 15.4718C16.6637 15.4727 16.6634 15.4736 16.6631 15.4745C16.6628 15.4754 16.6625 15.4763 16.6623 15.4772C16.662 15.4781 16.6617 15.4789 16.6614 15.4798C16.6611 15.4807 16.6608 15.4816 16.6605 15.4824C16.66 15.4839 16.6593 15.4862 16.6588 15.4876C16.6585 15.4885 16.6582 15.4893 16.658 15.4902C16.6577 15.491 16.6574 15.4919 16.6571 15.4927C16.6568 15.4936 16.6566 15.4944 16.6563 15.4952C16.656 15.4961 16.6557 15.4969 16.6555 15.4977C16.6552 15.4986 16.6549 15.4994 16.6547 15.5002C16.6544 15.501 16.6541 15.5019 16.6538 15.5027C16.6536 15.5035 16.6533 15.5043 16.653 15.5051C16.6528 15.5059 16.6525 15.5067 16.6522 15.5075C16.6517 15.5091 16.6512 15.5107 16.6507 15.5123C16.6504 15.5131 16.6502 15.5138 16.6499 15.5146C16.6496 15.5154 16.6494 15.5162 16.6491 15.5169C16.6489 15.5177 16.6486 15.5185 16.6484 15.5192C16.6481 15.52 16.6479 15.5207 16.6476 15.5215C16.6474 15.5222 16.6471 15.523 16.6469 15.5237C16.6466 15.5245 16.6464 15.5252 16.6462 15.526C16.6459 15.5267 16.6457 15.5274 16.6454 15.5282C16.6452 15.5289 16.645 15.5296 16.6447 15.5303C16.6445 15.531 16.6442 15.5318 16.644 15.5325C16.6438 15.5332 16.6435 15.5339 16.6433 15.5346C16.6431 15.5353 16.6429 15.536 16.6426 15.5367C16.6424 15.5374 16.6422 15.5381 16.6419 15.5388C16.6417 15.5394 16.6415 15.5401 16.6413 15.5408C16.6411 15.5415 16.6408 15.5421 16.6406 15.5428C16.6404 15.5435 16.6402 15.5441 16.64 15.5448C16.6397 15.5454 16.6395 15.5461 16.6393 15.5467C16.6391 15.5474 16.6389 15.548 16.6387 15.5487C16.6385 15.5493 16.6383 15.5499 16.638 15.5506C16.6378 15.5512 16.6376 15.5518 16.6374 15.5524C16.6372 15.5531 16.637 15.5537 16.6368 15.5543C16.6366 15.5549 16.6364 15.5555 16.6362 15.5561C16.636 15.5567 16.6358 15.5573 16.6356 15.5579C16.6354 15.5585 16.6352 15.5591 16.6351 15.5596C16.6349 15.5602 16.6347 15.5608 16.6345 15.5614C16.6343 15.5619 16.6341 15.5625 16.6339 15.5631C16.6337 15.5636 16.6336 15.5642 16.6334 15.5647C16.6332 15.5653 16.633 15.5658 16.6328 15.5663C16.6327 15.5669 16.6325 15.5674 16.6323 15.568C16.6321 15.5685 16.632 15.569 16.6318 15.5695C16.6316 15.57 16.6315 15.5705 16.6313 15.5711C16.6311 15.5716 16.631 15.5721 16.6308 15.5726C16.6306 15.5731 16.6305 15.5735 16.6303 15.574C16.6299 15.5752 16.6297 15.5758 16.6294 15.5769C16.6288 15.5787 16.6282 15.5805 16.6276 15.5822C16.6275 15.5826 16.6274 15.583 16.6272 15.5834C16.6271 15.5838 16.627 15.5842 16.6268 15.5846C16.6264 15.5859 16.6265 15.5857 16.6261 15.5869C16.6251 15.5897 16.6242 15.5926 16.6235 15.5946C16.6234 15.5949 16.6233 15.5952 16.6233 15.5954C16.6232 15.5957 16.6231 15.5959 16.623 15.5962C16.6229 15.5964 16.6229 15.5967 16.6228 15.5969C16.6227 15.5971 16.6226 15.5973 16.6225 15.5976C16.6224 15.5981 16.6223 15.5983 16.6221 15.5988C16.622 15.5991 16.6219 15.5997 16.6218 15.5999C16.6214 15.6009 16.6218 15.5998 16.6215 15.6008C16.6214 15.6009 16.6214 15.6011 16.6213 15.6012C16.6213 15.6013 16.6213 15.6015 16.6212 15.6016C16.6211 15.6019 16.621 15.6024 16.6209 15.6026C16.6209 15.6026 16.6209 15.6027 16.6209 15.6027C16.6208 15.6028 16.6208 15.6028 16.6208 15.6028C16.6208 15.6028 16.6208 15.6029 16.6208 15.6029C16.6208 15.6029 17.2573 16.8658 18.5202 16.2292C18.5202 16.2292 18.5202 16.2291 18.5203 16.2288C18.5203 16.2288 18.5204 16.2285 18.5205 16.2284C18.5205 16.2282 18.5206 16.2279 18.5207 16.2277C18.521 16.2268 18.5207 16.2278 18.521 16.2269C18.521 16.2267 18.5211 16.2266 18.5211 16.2264C18.5212 16.2262 18.5212 16.226 18.5213 16.2258C18.522 16.2238 18.5223 16.2229 18.5233 16.2198C18.5234 16.2195 18.5235 16.2192 18.5236 16.2188C18.5237 16.2185 18.5238 16.2181 18.524 16.2178C18.5241 16.2174 18.5242 16.2171 18.5243 16.2167C18.5244 16.2164 18.5246 16.216 18.5247 16.2156C18.5248 16.2152 18.5249 16.2148 18.5251 16.2144C18.5252 16.214 18.5253 16.2136 18.5255 16.2132C18.5256 16.2128 18.5258 16.2123 18.5259 16.2119C18.5261 16.2115 18.5262 16.211 18.5263 16.2106C18.5265 16.2101 18.5266 16.2096 18.5268 16.2092C18.527 16.2087 18.5271 16.2082 18.5273 16.2077C18.5274 16.2072 18.5276 16.2067 18.5278 16.2062C18.5279 16.2057 18.5281 16.2052 18.5283 16.2047C18.5285 16.2041 18.5286 16.2036 18.5288 16.2031C18.529 16.2025 18.5292 16.202 18.5294 16.2014C18.5295 16.2009 18.5297 16.2003 18.5299 16.1997C18.5301 16.1991 18.5303 16.1985 18.5305 16.1979C18.5307 16.1973 18.5309 16.1967 18.5311 16.1961C18.5313 16.1955 18.5315 16.1949 18.5317 16.1942C18.532 16.1935 18.5327 16.1912 18.533 16.1903C18.5332 16.1896 18.5335 16.189 18.5337 16.1883C18.5339 16.1876 18.5342 16.1869 18.5344 16.1862C18.5346 16.1855 18.5349 16.1847 18.5351 16.184C18.5353 16.1833 18.5356 16.1826 18.5358 16.1818C18.5361 16.1811 18.5363 16.1803 18.5366 16.1795C18.5368 16.1788 18.5371 16.178 18.5373 16.1772C18.5376 16.1764 18.5379 16.1756 18.5381 16.1748C18.5384 16.174 18.5387 16.1732 18.5389 16.1724C18.5392 16.1715 18.5395 16.1707 18.5398 16.1699C18.54 16.169 18.5403 16.1682 18.5406 16.1673C18.5409 16.1664 18.5412 16.1656 18.5415 16.1647C18.5418 16.1638 18.5421 16.1629 18.5424 16.162C18.5427 16.1611 18.543 16.1602 18.5433 16.1593C18.5436 16.1583 18.5439 16.1574 18.5442 16.1565C18.5446 16.1553 18.5457 16.1519 18.5461 16.1507C18.5464 16.1497 18.5467 16.1487 18.5471 16.1477C18.5474 16.1467 18.5477 16.1457 18.5481 16.1446C18.5484 16.1436 18.5488 16.1426 18.5491 16.1415C18.5494 16.1405 18.5498 16.1394 18.5501 16.1384C18.5505 16.1373 18.5509 16.1362 18.5512 16.1351C18.5516 16.1341 18.5519 16.133 18.5523 16.1319C18.5527 16.1307 18.553 16.1296 18.5534 16.1285C18.5538 16.1274 18.5542 16.1262 18.5545 16.1251C18.5549 16.1239 18.5553 16.1228 18.5557 16.1216C18.5561 16.1204 18.5565 16.1192 18.5569 16.1181C18.5572 16.1169 18.5576 16.1157 18.558 16.1144C18.5584 16.1132 18.5588 16.112 18.5593 16.1108C18.5597 16.1095 18.5601 16.1083 18.5605 16.107C18.5609 16.1058 18.5613 16.1045 18.5617 16.1032C18.5622 16.102 18.5626 16.1007 18.563 16.0994C18.5634 16.0981 18.5639 16.0968 18.5643 16.0954C18.5647 16.0941 18.5652 16.0928 18.5656 16.0914C18.5661 16.0901 18.5665 16.0887 18.567 16.0874C18.5674 16.086 18.5679 16.0846 18.5683 16.0832C18.5688 16.0818 18.5693 16.0804 18.5697 16.079C18.5702 16.0776 18.5706 16.0762 18.5711 16.0748C18.5716 16.0733 18.5721 16.0719 18.5725 16.0704C18.5737 16.0668 18.5742 16.0653 18.5755 16.0616C18.576 16.0601 18.5765 16.0586 18.577 16.057C18.5775 16.0555 18.578 16.054 18.5785 16.0524C18.579 16.0509 18.5795 16.0493 18.58 16.0478C18.5805 16.0462 18.5811 16.0446 18.5816 16.043C18.5857 16.0306 18.5903 16.0165 18.5949 16.0026C18.5955 16.0008 18.5961 15.999 18.5967 15.9972C18.5973 15.9954 18.5979 15.9936 18.5985 15.9918C18.5991 15.9899 18.5997 15.9881 18.6003 15.9862C18.6009 15.9844 18.6015 15.9825 18.6022 15.9806C18.6028 15.9788 18.6034 15.9769 18.604 15.975C18.6047 15.9731 18.6053 15.9712 18.6059 15.9692C18.6073 15.9652 18.6084 15.9617 18.6098 15.9575C18.6152 15.9411 18.6202 15.9258 18.6262 15.9078L16.7268 15.2814Z" fill="#426A5A" mask="url(#path-1-inside-1_3335_4208)"/>
</svg>
