<svg width="23" height="21" viewBox="0 0 23 21" fill="none" xmlns="http://www.w3.org/2000/svg">
<path d="M22.1334 21V5.63061L16.0573 2.59258L15.3905 2.20675C15.2021 1.89383 14.988 1.5961 14.7221 1.3318C12.9449 -0.443932 10.0557 -0.443932 8.27846 1.3318C7.4187 2.19308 6.94325 3.33841 6.94325 4.55515C6.94325 4.66755 6.96755 4.77692 6.97515 4.88781L0.867188 1.83307V17.2025L6.94325 20.2405L7.66782 20.602L8.46226 20.2861L15.2629 17.5655L22.1334 21ZM20.6144 6.56936V18.5422L16.0573 16.2637V4.55515V4.29084L20.6144 6.56936ZM9.3524 2.40574C10.5357 1.22243 12.4649 1.22243 13.6482 2.40574C13.9277 2.68524 14.1419 3.01031 14.2922 3.3612L14.3226 3.43715C14.3333 3.46297 14.3378 3.49032 14.3469 3.51614C14.4031 3.67108 14.4533 3.82754 14.4836 3.98703C14.5186 4.17235 14.5383 4.36223 14.5383 4.55515C14.5383 5.3663 14.2224 6.12885 13.6482 6.70303L11.5003 8.85092L9.3524 6.70303C9.2081 6.55873 9.0805 6.40227 8.96961 6.2367C8.94987 6.20632 8.93771 6.1729 8.91949 6.14404C8.8329 6.00277 8.75088 5.85998 8.6886 5.70656C8.54125 5.34655 8.46226 4.95617 8.46226 4.55515C8.46226 3.74399 8.77822 2.97993 9.3524 2.40574ZM2.3862 16.2637V4.29084L6.94325 6.56936V18.5422L2.3862 16.2637ZM8.46226 7.96078L11.5003 10.9988L14.5383 7.96078V16.2197L8.46226 18.6501V7.96078Z" fill="#242525"/>
</svg>
