<svg width="42" height="38" viewBox="0 0 42 38" fill="none" xmlns="http://www.w3.org/2000/svg">
<rect width="42" height="38" rx="3" fill="#FCFCFC"/>
<rect x="0.25" y="0.25" width="41.5" height="37.5" rx="2.75" stroke="#242525" stroke-opacity="0.2" stroke-width="0.5"/>
<path d="M27.75 14.3523H13.6875V13.7898L26.0625 12.7998V13.7898H27.75V12.1023C27.75 10.8648 26.7476 9.99634 25.5236 10.1707L14.2275 11.784C13.0024 11.9595 12 13.1148 12 14.3523V25.6023C12 26.1991 12.2371 26.7714 12.659 27.1933C13.081 27.6153 13.6533 27.8523 14.25 27.8523H27.75C28.3467 27.8523 28.919 27.6153 29.341 27.1933C29.7629 26.7714 30 26.1991 30 25.6023V16.6023C30 16.0056 29.7629 15.4333 29.341 15.0114C28.919 14.5894 28.3467 14.3523 27.75 14.3523ZM26.0625 22.2341C25.8408 22.234 25.6213 22.1903 25.4165 22.1054C25.2118 22.0205 25.0257 21.8961 24.869 21.7393C24.7123 21.5825 24.588 21.3963 24.5033 21.1915C24.4185 20.9867 24.3749 20.7671 24.375 20.5455C24.3751 20.3238 24.4188 20.1043 24.5037 19.8995C24.5886 19.6947 24.713 19.5087 24.8698 19.352C25.0266 19.1953 25.2128 19.071 25.4176 18.9862C25.6224 18.9015 25.8419 18.8579 26.0636 18.858C26.5113 18.8581 26.9406 19.0361 27.2571 19.3528C27.5736 19.6695 27.7513 20.0989 27.7511 20.5466C27.751 20.9943 27.573 21.4236 27.2563 21.7401C26.9396 22.0565 26.5102 22.2342 26.0625 22.2341Z" fill="#10A58A"/>
</svg>
