<svg width="4" height="16" viewBox="0 0 4 16" fill="none" xmlns="http://www.w3.org/2000/svg">
<path d="M2.00006 6.23867C1.76883 6.23867 1.53986 6.28422 1.32623 6.3727C1.1126 6.46119 0.91849 6.59089 0.754984 6.7544C0.591479 6.9179 0.461779 7.11201 0.373291 7.32564C0.284802 7.53927 0.239258 7.76824 0.239258 7.99947C0.239258 8.2307 0.284802 8.45967 0.373291 8.6733C0.461779 8.88693 0.591479 9.08104 0.754984 9.24454C0.91849 9.40805 1.1126 9.53775 1.32623 9.62624C1.53986 9.71473 1.76883 9.76027 2.00006 9.76027C2.46705 9.76017 2.91488 9.57455 3.24501 9.24426C3.57515 8.91397 3.76056 8.46606 3.76046 7.99907C3.76035 7.53208 3.57474 7.08425 3.24445 6.75412C2.91416 6.42398 2.46625 6.23857 1.99926 6.23867H2.00006ZM2.00006 4.15867C2.23118 4.15857 2.46003 4.11294 2.67352 4.02439C2.88701 3.93585 3.08097 3.80612 3.24433 3.64261C3.40769 3.47911 3.53724 3.28503 3.62559 3.07146C3.71394 2.85788 3.75936 2.629 3.75926 2.39787C3.75915 2.16675 3.71352 1.9379 3.62498 1.72441C3.53643 1.51092 3.40671 1.31696 3.2432 1.1536C3.07969 0.990242 2.88561 0.860689 2.67204 0.772338C2.45847 0.683987 2.22958 0.638567 1.99846 0.638672C1.53168 0.638884 1.0841 0.824516 0.754184 1.15473C0.42427 1.48494 0.239046 1.93269 0.239258 2.39947C0.23947 2.86625 0.425102 3.31383 0.755316 3.64375C1.08553 3.97366 1.53328 4.15888 2.00006 4.15867ZM2.00006 11.8387C1.53306 11.8387 1.0852 12.0242 0.754984 12.3544C0.42477 12.6846 0.239258 13.1325 0.239258 13.5995C0.239258 14.0665 0.42477 14.5143 0.754984 14.8445C1.0852 15.1748 1.53306 15.3603 2.00006 15.3603C2.46705 15.3603 2.91492 15.1748 3.24513 14.8445C3.57535 14.5143 3.76086 14.0665 3.76086 13.5995C3.76086 13.1325 3.57535 12.6846 3.24513 12.3544C2.91492 12.0242 2.46705 11.8387 2.00006 11.8387Z" fill="black"/>
</svg>
