<svg width="17" height="20" viewBox="0 0 17 20" fill="none" xmlns="http://www.w3.org/2000/svg">
<path d="M8.50016 15.834C8.65674 15.834 8.8098 15.7851 8.93999 15.6935C9.07018 15.602 9.17165 15.4718 9.23157 15.3196C9.29148 15.1673 9.30716 14.9997 9.27662 14.8381C9.24607 14.6764 9.17067 14.5279 9.05995 14.4114C8.94924 14.2949 8.80818 14.2155 8.65461 14.1833C8.50104 14.1512 8.34186 14.1677 8.1972 14.2308C8.05255 14.2938 7.9289 14.4006 7.84191 14.5377C7.75493 14.6747 7.70849 14.8358 7.70849 15.0007C7.70849 15.2217 7.7919 15.4336 7.94037 15.5899C8.08883 15.7462 8.2902 15.834 8.50016 15.834ZM12.4585 15.834C12.6151 15.834 12.7681 15.7851 12.8983 15.6935C13.0285 15.602 13.13 15.4718 13.1899 15.3196C13.2498 15.1673 13.2655 14.9997 13.2349 14.8381C13.2044 14.6764 13.129 14.5279 13.0183 14.4114C12.9076 14.2949 12.7665 14.2155 12.6129 14.1833C12.4594 14.1512 12.3002 14.1677 12.1555 14.2308C12.0109 14.2938 11.8872 14.4006 11.8002 14.5377C11.7133 14.6747 11.6668 14.8358 11.6668 15.0007C11.6668 15.2217 11.7502 15.4336 11.8987 15.5899C12.0472 15.7462 12.2485 15.834 12.4585 15.834ZM12.4585 12.5007C12.6151 12.5007 12.7681 12.4518 12.8983 12.3602C13.0285 12.2686 13.13 12.1385 13.1899 11.9862C13.2498 11.834 13.2655 11.6664 13.2349 11.5047C13.2044 11.3431 13.129 11.1946 13.0183 11.0781C12.9076 10.9615 12.7665 10.8822 12.6129 10.85C12.4594 10.8178 12.3002 10.8343 12.1555 10.8974C12.0109 10.9605 11.8872 11.0673 11.8002 11.2043C11.7133 11.3414 11.6668 11.5025 11.6668 11.6673C11.6668 11.8883 11.7502 12.1003 11.8987 12.2566C12.0472 12.4129 12.2485 12.5007 12.4585 12.5007ZM8.50016 12.5007C8.65674 12.5007 8.8098 12.4518 8.93999 12.3602C9.07018 12.2686 9.17165 12.1385 9.23157 11.9862C9.29148 11.834 9.30716 11.6664 9.27662 11.5047C9.24607 11.3431 9.17067 11.1946 9.05995 11.0781C8.94924 10.9615 8.80818 10.8822 8.65461 10.85C8.50104 10.8178 8.34186 10.8343 8.1972 10.8974C8.05255 10.9605 7.9289 11.0673 7.84191 11.2043C7.75493 11.3414 7.70849 11.5025 7.70849 11.6673C7.70849 11.8883 7.7919 12.1003 7.94037 12.2566C8.08883 12.4129 8.2902 12.5007 8.50016 12.5007ZM14.0418 2.50065H13.2502V1.66732C13.2502 1.4463 13.1668 1.23434 13.0183 1.07806C12.8698 0.921782 12.6685 0.833984 12.4585 0.833984C12.2485 0.833984 12.0472 0.921782 11.8987 1.07806C11.7502 1.23434 11.6668 1.4463 11.6668 1.66732V2.50065H5.3335V1.66732C5.3335 1.4463 5.25009 1.23434 5.10162 1.07806C4.95316 0.921782 4.75179 0.833984 4.54183 0.833984C4.33187 0.833984 4.1305 0.921782 3.98204 1.07806C3.83357 1.23434 3.75016 1.4463 3.75016 1.66732V2.50065H2.9585C2.32861 2.50065 1.72452 2.76404 1.27912 3.23288C0.833719 3.70173 0.583496 4.33761 0.583496 5.00065V16.6673C0.583496 17.3304 0.833719 17.9662 1.27912 18.4351C1.72452 18.9039 2.32861 19.1673 2.9585 19.1673H14.0418C14.6717 19.1673 15.2758 18.9039 15.7212 18.4351C16.1666 17.9662 16.4168 17.3304 16.4168 16.6673V5.00065C16.4168 4.33761 16.1666 3.70173 15.7212 3.23288C15.2758 2.76404 14.6717 2.50065 14.0418 2.50065ZM14.8335 16.6673C14.8335 16.8883 14.7501 17.1003 14.6016 17.2566C14.4532 17.4129 14.2518 17.5007 14.0418 17.5007H2.9585C2.74853 17.5007 2.54717 17.4129 2.3987 17.2566C2.25024 17.1003 2.16683 16.8883 2.16683 16.6673V9.16732H14.8335V16.6673ZM14.8335 7.50065H2.16683V5.00065C2.16683 4.77964 2.25024 4.56768 2.3987 4.4114C2.54717 4.25512 2.74853 4.16732 2.9585 4.16732H3.75016V5.00065C3.75016 5.22167 3.83357 5.43363 3.98204 5.58991C4.1305 5.74619 4.33187 5.83398 4.54183 5.83398C4.75179 5.83398 4.95316 5.74619 5.10162 5.58991C5.25009 5.43363 5.3335 5.22167 5.3335 5.00065V4.16732H11.6668V5.00065C11.6668 5.22167 11.7502 5.43363 11.8987 5.58991C12.0472 5.74619 12.2485 5.83398 12.4585 5.83398C12.6685 5.83398 12.8698 5.74619 13.0183 5.58991C13.1668 5.43363 13.2502 5.22167 13.2502 5.00065V4.16732H14.0418C14.2518 4.16732 14.4532 4.25512 14.6016 4.4114C14.7501 4.56768 14.8335 4.77964 14.8335 5.00065V7.50065ZM4.54183 12.5007C4.69841 12.5007 4.85147 12.4518 4.98166 12.3602C5.11184 12.2686 5.21331 12.1385 5.27323 11.9862C5.33315 11.834 5.34883 11.6664 5.31828 11.5047C5.28774 11.3431 5.21234 11.1946 5.10162 11.0781C4.9909 10.9615 4.84984 10.8822 4.69628 10.85C4.54271 10.8178 4.38353 10.8343 4.23887 10.8974C4.09421 10.9605 3.97057 11.0673 3.88358 11.2043C3.79659 11.3414 3.75016 11.5025 3.75016 11.6673C3.75016 11.8883 3.83357 12.1003 3.98204 12.2566C4.1305 12.4129 4.33187 12.5007 4.54183 12.5007ZM4.54183 15.834C4.69841 15.834 4.85147 15.7851 4.98166 15.6935C5.11184 15.602 5.21331 15.4718 5.27323 15.3196C5.33315 15.1673 5.34883 14.9997 5.31828 14.8381C5.28774 14.6764 5.21234 14.5279 5.10162 14.4114C4.9909 14.2949 4.84984 14.2155 4.69628 14.1833C4.54271 14.1512 4.38353 14.1677 4.23887 14.2308C4.09421 14.2938 3.97057 14.4006 3.88358 14.5377C3.79659 14.6747 3.75016 14.8358 3.75016 15.0007C3.75016 15.2217 3.83357 15.4336 3.98204 15.5899C4.1305 15.7462 4.33187 15.834 4.54183 15.834Z" fill="#242525"/>
</svg>
