<svg width="22" height="22" viewBox="0 0 22 22" fill="none" xmlns="http://www.w3.org/2000/svg">
<path d="M10.9707 12.2808C13.9626 12.2808 16.3579 9.73283 16.3579 6.63077C16.3579 3.52907 13.9629 0.95 10.9707 0.95C7.97877 0.95 5.58343 3.49794 5.58343 6.6C5.58343 9.7017 7.97843 12.2808 10.9707 12.2808ZM10.9707 2.52692C13.1109 2.52692 14.8503 4.3484 14.8503 6.6C14.8503 8.8516 13.1109 10.6731 10.9707 10.6731C8.82996 10.6731 7.09106 8.88187 7.09106 6.63077C7.09106 4.37867 8.83091 2.52692 10.9707 2.52692ZM1.70381 21.05H20.2962C20.7073 21.05 21.05 20.6869 21.05 20.2615C21.05 16.3593 18.0093 13.1654 14.2845 13.1654H7.71554C3.99068 13.1654 0.95 16.3593 0.95 20.2615C0.95 20.6869 1.29273 21.05 1.70381 21.05ZM7.71554 14.7423H14.2845C16.9364 14.7423 19.1049 16.7849 19.4766 19.4731H2.52339C2.89512 16.7849 5.06364 14.7423 7.71554 14.7423Z" fill="#242525" stroke="#242525" stroke-width="0.1"/>
</svg>
