<svg width="19" height="20" viewBox="0 0 19 20" fill="none" xmlns="http://www.w3.org/2000/svg">
<path d="M9.5957 4.16356C9.94155 4.16356 10.7632 4.36053 10.7632 4.36053C12.9893 4.81995 14.5561 6.6666 14.5561 8.75156V14.3635L15.0112 14.7753L15.3915 15.1193H3.70225L4.08252 14.7753L4.53765 14.3635V8.75156C4.53765 6.66665 6.10449 4.81995 8.33052 4.36053C8.33052 4.36053 9.21152 4.16356 9.49805 4.16356M9.54688 0.976562C8.6874 0.976562 8.03032 1.57103 8.03032 2.34862V2.98887C5.14873 3.58356 2.97515 5.96171 2.97515 8.75156V13.7824L0.953125 15.6119V16.5266H18.1406V15.6119L16.1186 13.7824V8.75156C16.1186 5.96171 13.945 3.58356 11.0634 2.98887V2.34862C11.0634 1.57103 10.4063 0.976562 9.54688 0.976562ZM11.5689 17.4413H7.5248C7.5248 18.4475 8.43462 19.2707 9.54688 19.2707C10.6591 19.2707 11.5689 18.4475 11.5689 17.4413Z" fill="#242525"/>
</svg>
