<svg width="10" height="12" viewBox="0 0 10 12" fill="none" xmlns="http://www.w3.org/2000/svg">
<path d="M5.14286 11.272C5.22781 11.2715 5.3101 11.2423 5.37636 11.1892C5.51948 11.0611 9.28571 8.02552 9.28571 4.86942C9.28571 3.77067 8.84924 2.71691 8.0723 1.93998C7.29536 1.16304 6.24161 0.726563 5.14286 0.726562C4.0441 0.726563 2.99035 1.16304 2.21341 1.93998C1.43648 2.71691 1 3.77067 1 4.86942C1 8.02552 4.76623 11.0611 4.90935 11.1892C4.97561 11.2423 5.0579 11.2715 5.14286 11.272ZM1.75325 4.86942C1.75325 3.97044 2.11037 3.10828 2.74604 2.4726C3.38172 1.83693 4.24388 1.47981 5.14286 1.47981C6.04184 1.47981 6.904 1.83693 7.53967 2.4726C8.17535 3.10828 8.53247 3.97044 8.53247 4.86942C8.53247 7.24215 5.94507 9.69396 5.14286 10.402C4.34065 9.69396 1.75325 7.24215 1.75325 4.86942Z" fill="#242525" fill-opacity="0.7"/>
<path d="M5.40765 11.2282L5.4077 11.2282L5.4097 11.2264C5.41597 11.2208 5.42952 11.2094 5.44967 11.1923C5.65504 11.0187 6.54688 10.2648 7.42336 9.19652C8.3845 8.02504 9.33571 6.46557 9.33571 4.86942C9.33571 3.7574 8.89397 2.69093 8.10766 1.90462C7.32134 1.11831 6.25487 0.676562 5.14286 0.676562C4.03084 0.676562 2.96437 1.11831 2.17806 1.90462C1.39175 2.69093 0.95 3.7574 0.95 4.86942C0.95 6.46557 1.90121 8.02504 2.86235 9.19652C3.73884 10.2648 4.63067 11.0187 4.83604 11.1923C4.8562 11.2094 4.86974 11.2208 4.87601 11.2264L4.87596 11.2265L4.87806 11.2282C4.95312 11.2884 5.04634 11.3215 5.14257 11.322L5.14315 11.322C5.23938 11.3215 5.33259 11.2884 5.40765 11.2282ZM1.80325 4.86942C1.80325 3.9837 2.1551 3.13426 2.7814 2.50796C3.40769 1.88166 4.25714 1.52981 5.14286 1.52981C6.02858 1.52981 6.87802 1.88166 7.50432 2.50796C8.13062 3.13426 8.48247 3.9837 8.48247 4.86942C8.48247 6.03919 7.84376 7.2344 7.09846 8.23001C6.3742 9.19752 5.55489 9.9692 5.14286 10.3352C4.73083 9.9692 3.91151 9.19752 3.18725 8.23001C2.44195 7.2344 1.80325 6.03919 1.80325 4.86942Z" stroke="#242525" stroke-opacity="0.7" stroke-width="0.1"/>
<path d="M7.026 4.86945C7.026 4.497 6.91556 4.13292 6.70864 3.82324C6.50172 3.51357 6.20762 3.2722 5.86352 3.12967C5.51943 2.98714 5.14079 2.94985 4.77551 3.02251C4.41022 3.09517 4.07468 3.27452 3.81132 3.53788C3.54796 3.80124 3.36861 4.13678 3.29595 4.50207C3.22329 4.86736 3.26058 5.24599 3.40311 5.59008C3.54564 5.93418 3.787 6.22828 4.09668 6.4352C4.40636 6.64212 4.77044 6.75256 5.14288 6.75256C5.64232 6.75256 6.12129 6.55416 6.47445 6.20101C6.8276 5.84786 7.026 5.36888 7.026 4.86945ZM4.01301 4.86945C4.01301 4.64598 4.07928 4.42753 4.20343 4.24172C4.32758 4.05592 4.50404 3.9111 4.7105 3.82558C4.91696 3.74006 5.14414 3.71769 5.36331 3.76129C5.58248 3.80488 5.78381 3.91249 5.94182 4.07051C6.09984 4.22852 6.20745 4.42985 6.25104 4.64902C6.29464 4.86819 6.27226 5.09537 6.18675 5.30183C6.10123 5.50829 5.95641 5.68475 5.77061 5.8089C5.5848 5.93305 5.36635 5.99932 5.14288 5.99932C4.84322 5.99932 4.55584 5.88028 4.34394 5.66838C4.13205 5.45649 4.01301 5.16911 4.01301 4.86945Z" fill="#242525" fill-opacity="0.7"/>
<path d="M7.076 4.86945C7.076 4.48711 6.96263 4.11336 6.75021 3.79546C6.5378 3.47756 6.23589 3.22979 5.88266 3.08348C5.52942 2.93717 5.14074 2.89888 4.76575 2.97347C4.39076 3.04806 4.04631 3.23217 3.77596 3.50253C3.50561 3.77288 3.3215 4.11733 3.24691 4.49231C3.17232 4.8673 3.2106 5.25599 3.35692 5.60922C3.50323 5.96245 3.751 6.26436 4.0689 6.47677C4.3868 6.68919 4.76055 6.80256 5.14288 6.80256C5.65558 6.80256 6.14727 6.5989 6.5098 6.23637C6.87233 5.87384 7.076 5.38214 7.076 4.86945ZM4.06301 4.86945C4.06301 4.65587 4.12635 4.44709 4.245 4.2695C4.36366 4.09192 4.53231 3.95351 4.72963 3.87178C4.92696 3.79004 5.14408 3.76866 5.35356 3.81033C5.56303 3.85199 5.75544 3.95484 5.90647 4.10586C6.05749 4.25688 6.16034 4.4493 6.202 4.65877C6.24367 4.86825 6.22229 5.08537 6.14055 5.28269C6.05882 5.48001 5.92041 5.64867 5.74283 5.76732C5.56524 5.88598 5.35646 5.94932 5.14288 5.94932C4.85648 5.94932 4.58181 5.83554 4.3793 5.63303C4.17678 5.43051 4.06301 5.15585 4.06301 4.86945Z" stroke="#242525" stroke-opacity="0.7" stroke-width="0.1"/>
</svg>
