<svg width="375" height="222" viewBox="0 0 375 222" fill="none" xmlns="http://www.w3.org/2000/svg">
<g opacity="0.1">
<path d="M148.143 -16.8376C148.143 -12.8544 146.151 -8.97081 142.467 -6.78005C113.24 10.5966 98.4526 43.5078 98.4526 91.3061C98.4526 185.21 58.8198 213.092 25.5602 219.913C20.1828 221.009 14.8056 221.507 9.47804 221.507C-21.4913 221.507 -49.8218 203.383 -61.3232 174.405C-79.2974 129.395 -59.8296 58.146 131.314 -27.6918C137.339 -30.4303 144.459 -27.7416 147.147 -21.6672C147.844 -20.074 148.143 -18.4807 148.143 -16.8376Z" fill="#3F6254"/>
<path d="M226.857 -16.8376C226.857 -12.8544 228.849 -8.97081 232.533 -6.78005C261.76 10.5966 276.548 43.5078 276.548 91.3061C276.548 185.21 316.18 213.092 349.44 219.913C354.817 221.009 360.195 221.507 365.522 221.507C396.491 221.507 424.822 203.383 436.323 174.405C454.298 129.395 434.83 58.146 243.686 -27.6918C237.662 -30.4303 230.542 -27.7416 227.853 -21.6672C227.156 -20.074 226.857 -18.4807 226.857 -16.8376Z" fill="#3F6254"/>
</g>
</svg>
