<svg width="22" height="22" viewBox="0 0 22 22" fill="none" xmlns="http://www.w3.org/2000/svg">
<path d="M1.50076 21.15H1.50073C1.14183 21.1499 0.850785 20.8589 0.850845 20.5L1.50076 21.15ZM1.50076 21.15H11.0004C13.5169 21.1499 15.9436 20.215 17.8097 18.5266C21.9665 14.7657 22.2874 8.34709 18.5266 4.1903C14.7656 0.0335122 8.34707 -0.287443 4.19029 3.47344L4.29093 3.58467M1.50076 21.15L4.29093 3.58467M4.29093 3.58467L4.19029 3.47344C0.0688537 7.2024 -0.281704 13.544 3.37839 17.7032M4.29093 3.58467L3.37839 17.7032M3.37839 17.7032L1.0412 20.0405C0.919335 20.1623 0.850854 20.3276 0.850845 20.4999L3.37839 17.7032ZM11.0004 10.1004C10.5033 10.1004 10.1004 10.5034 10.1004 11.0004C10.1004 11.4974 10.5033 11.9004 11.0004 11.9004C11.4974 11.9004 11.9003 11.4974 11.9003 11.0004C11.9003 10.5034 11.4974 10.1004 11.0004 10.1004ZM8.00048 10.1004C7.50347 10.1004 7.10052 10.5034 7.10052 11.0004C7.10052 11.4974 7.50347 11.9004 8.00048 11.9004C8.49749 11.9004 8.90045 11.4974 8.90045 11.0004C8.90045 10.5034 8.49749 10.1004 8.00048 10.1004ZM14.0002 10.1004C13.5032 10.1004 13.1003 10.5034 13.1003 11.0004C13.1003 11.4974 13.5032 11.9004 14.0002 11.9004C14.4972 11.9004 14.9002 11.4974 14.9002 11.0004C14.9002 10.5034 14.4972 10.1004 14.0002 10.1004ZM11.0004 19.85H3.06982L4.74243 18.1775L4.63637 18.0714L4.74244 18.1775L4.74245 18.1775L4.74249 18.1774L4.74266 18.1772L4.74329 18.1766L4.74495 18.1749C4.99631 17.9209 4.99547 17.5112 4.74244 17.2583C3.08326 15.5991 2.15098 13.3489 2.15074 11.0024C2.1502 6.1154 6.11138 2.1533 10.9984 2.15276C15.8853 2.15222 19.8474 6.11342 19.848 11.0004C19.8485 15.8873 15.8873 19.8495 11.0004 19.85Z" fill="#242525" stroke="#242525" stroke-width="0.3"/>
</svg>
