<svg width="43" height="38" viewBox="0 0 43 38" fill="none" xmlns="http://www.w3.org/2000/svg">
<rect x="0.5" width="42" height="38" rx="3" fill="#FCFCFC"/>
<rect x="0.75" y="0.25" width="41.5" height="37.5" rx="2.75" stroke="#242525" stroke-opacity="0.2" stroke-width="0.5"/>
<path d="M28.7 13.7895H25.1V11.8947C25.1 10.8432 24.299 10 23.3 10H19.7C18.701 10 17.9 10.8432 17.9 11.8947V13.7895H14.3C13.301 13.7895 12.509 14.6326 12.509 15.6842L12.5 26.1053C12.5 27.1568 13.301 28 14.3 28H28.7C29.699 28 30.5 27.1568 30.5 26.1053V15.6842C30.5 14.6326 29.699 13.7895 28.7 13.7895ZM23.3 13.7895H19.7V11.8947H23.3V13.7895Z" fill="#4E71A7"/>
</svg>
