<svg width="45" height="25" viewBox="0 0 45 25" fill="none" xmlns="http://www.w3.org/2000/svg">
<path d="M26.134 16.2217L23.5921 19.5084C23.0445 20.2173 21.9492 20.2173 21.4016 19.5084L18.8597 16.2217C18.1862 15.3482 18.8301 14.1094 19.9549 14.1094H25.0388C26.1673 14.1094 26.8111 15.3482 26.134 16.2217Z" fill="black"/>
<path d="M26.5484 24.1699C23.8436 24.1699 21.6421 22.0396 21.6421 19.4224C21.6421 18.9641 22.0269 18.5918 22.5005 18.5918C22.9741 18.5918 23.3589 18.9641 23.3589 19.4224C23.3589 21.1266 24.7909 22.5122 26.5521 22.5122C28.3133 22.5122 29.7453 21.1266 29.7453 19.4224C29.7453 18.9641 30.1301 18.5918 30.6037 18.5918C31.0773 18.5918 31.4621 18.9641 31.4621 19.4224C31.4584 22.0396 29.2569 24.1699 26.5484 24.1699Z" fill="black"/>
<path d="M18.4493 24.1699C15.7445 24.1699 13.543 22.0396 13.543 19.4224C13.543 18.9641 13.9278 18.5918 14.4014 18.5918C14.875 18.5918 15.2598 18.9641 15.2598 19.4224C15.2598 21.1266 16.6917 22.5122 18.453 22.5122C20.2142 22.5122 21.6462 21.1266 21.6462 19.4224C21.6462 18.9641 22.031 18.5918 22.5046 18.5918C22.9782 18.5918 23.363 18.9641 23.363 19.4224C23.3593 22.0396 21.1577 24.1699 18.4493 24.1699Z" fill="black"/>
<path d="M27.7143 11.017C29.0752 11.017 30.1785 9.94942 30.1785 8.63252C30.1785 7.31561 29.0752 6.24805 27.7143 6.24805C26.3533 6.24805 25.25 7.31561 25.25 8.63252C25.25 9.94942 26.3533 11.017 27.7143 11.017Z" fill="black"/>
<path d="M17.2875 11.017C18.6485 11.017 19.7518 9.94942 19.7518 8.63252C19.7518 7.31561 18.6485 6.24805 17.2875 6.24805C15.9265 6.24805 14.8232 7.31561 14.8232 8.63252C14.8232 9.94942 15.9265 11.017 17.2875 11.017Z" fill="black"/>
<path d="M15.9589 1.51382C15.9589 1.80024 15.8109 2.0795 15.5371 2.23703C13.3652 3.48655 12.2662 5.85312 12.2662 9.29019C12.2662 16.0426 9.32098 18.0476 6.84932 18.5381C6.44972 18.6168 6.05011 18.6526 5.6542 18.6526C3.35275 18.6526 1.2474 17.3494 0.392681 15.2657C-0.943048 12.0291 0.503682 6.90572 14.7083 0.733314C15.156 0.536398 15.6851 0.729734 15.8849 1.16653C15.9367 1.2811 15.9589 1.39567 15.9589 1.51382Z" fill="black"/>
<path d="M44.6087 15.2657C43.7503 17.3458 41.645 18.6526 39.3472 18.6526C38.9513 18.6526 38.5517 18.6133 38.1521 18.5381C35.6804 18.0476 32.7352 16.0426 32.7352 9.29019C32.7352 5.85312 31.6362 3.48655 29.4643 2.23703C29.1942 2.08308 29.0425 1.80382 29.0425 1.51382C29.0425 1.39567 29.0647 1.27752 29.1165 1.16653C29.3163 0.729734 29.8454 0.536398 30.2931 0.733314C44.4977 6.90572 45.9408 12.0291 44.6087 15.2657Z" fill="black"/>
</svg>
